<?xml version="1.0" encoding="UTF-8"?>
<svg version="1.1" xmlns="http://www.w3.org/2000/svg" width="1024" height="1024">
<path d="M0 0 C337.92 0 675.84 0 1024 0 C1024 337.92 1024 675.84 1024 1024 C686.08 1024 348.16 1024 0 1024 C0 686.08 0 348.16 0 0 Z " fill="#FDFEFE" transform="translate(0,0)"/>
<path d="M0 0 C2.90816134 1.34289909 5.87013459 2.48027371 8.85546875 3.640625 C14.93294505 6.18899499 18.33754015 8.46439923 21.16796875 14.578125 C26.60546875 30.890625 26.60546875 30.890625 26.60546875 38.203125 C27.26546875 38.203125 27.92546875 38.203125 28.60546875 38.203125 C28.60546875 41.173125 28.60546875 44.143125 28.60546875 47.203125 C30.09046875 47.29787109 30.09046875 47.29787109 31.60546875 47.39453125 C32.93895125 47.51661063 34.27227786 47.64040119 35.60546875 47.765625 C36.90484375 47.87003906 38.20421875 47.97445312 39.54296875 48.08203125 C44.81915235 49.10204273 47.91877641 52.50224646 51.60546875 56.203125 C52.35828125 56.94248291 53.11109375 57.68184082 53.88671875 58.44360352 C57.1326232 61.65981167 60.33384125 64.91911183 63.5390625 68.17578125 C67.78959626 72.46764921 72.10325533 76.57890405 76.68505859 80.51416016 C79.98456727 83.41601638 83.07307737 86.523633 86.16796875 89.640625 C87.14902588 90.62349487 87.14902588 90.62349487 88.14990234 91.6262207 C92.02026538 95.52805404 95.72453 99.51302754 99.26953125 103.71484375 C100.7016254 105.39198399 100.7016254 105.39198399 103.10546875 107.203125 C105.28696756 108.94832404 106.79829125 110.5407425 108.57421875 112.6640625 C111.53046151 116.08521074 114.65062782 119.24205568 117.91796875 122.3671875 C118.84738281 123.26179687 119.77679687 124.15640625 120.734375 125.078125 C122.18145678 126.4641734 123.62889173 127.85000285 125.09326172 129.21777344 C126.52969825 130.56351265 127.94299657 131.93381688 129.35546875 133.3046875 C130.1959375 134.10213379 131.03640625 134.89958008 131.90234375 135.72119141 C133.60546875 138.203125 133.60546875 138.203125 133.4375 141.36083984 C132.70786353 143.85333626 131.89995283 145.95935259 130.60546875 148.203125 C129.94546875 148.203125 129.28546875 148.203125 128.60546875 148.203125 C128.51185059 148.75564941 128.41823242 149.30817383 128.32177734 149.87744141 C127.18848756 155.76879901 125.19928172 160.39794169 122.23046875 165.578125 C118.70857155 171.9473639 115.76084979 178.22451365 113.60546875 185.203125 C112.94546875 185.203125 112.28546875 185.203125 111.60546875 185.203125 C111.48171875 185.904375 111.35796875 186.605625 111.23046875 187.328125 C110.5670853 190.37968887 109.6333492 193.25653438 108.60546875 196.203125 C107.94546875 196.203125 107.28546875 196.203125 106.60546875 196.203125 C106.42371094 196.85539063 106.24195313 197.50765625 106.0546875 198.1796875 C104.62462729 203.15189684 103.00950857 207.60409231 100.60546875 212.203125 C99.90574902 214.19180213 99.22882478 216.18920551 98.60546875 218.203125 C97.94546875 218.203125 97.28546875 218.203125 96.60546875 218.203125 C96.48429687 218.84121094 96.363125 219.47929688 96.23828125 220.13671875 C96.07070313 220.96300781 95.903125 221.78929687 95.73046875 222.640625 C95.48683594 223.87619141 95.48683594 223.87619141 95.23828125 225.13671875 C95.02945312 225.81863281 94.820625 226.50054688 94.60546875 227.203125 C93.94546875 227.533125 93.28546875 227.863125 92.60546875 228.203125 C91.84324574 230.18663485 91.84324574 230.18663485 91.23046875 232.515625 C89.25530216 238.7472756 86.10452938 240.93341327 80.60546875 244.203125 C80.27546875 244.863125 79.94546875 245.523125 79.60546875 246.203125 C79.00734375 246.491875 78.40921875 246.780625 77.79296875 247.078125 C75.46505434 248.12779627 75.46505434 248.12779627 73.60546875 250.265625 C71.60546875 252.203125 71.60546875 252.203125 69.48046875 252.703125 C68.86171875 252.868125 68.24296875 253.033125 67.60546875 253.203125 C67.33992188 253.80640625 67.074375 254.4096875 66.80078125 255.03125 C65.22581327 257.89295652 63.41747208 258.8345882 60.60546875 260.453125 C59.71859375 260.97390625 58.83171875 261.4946875 57.91796875 262.03125 C55.60546875 263.203125 55.60546875 263.203125 53.60546875 263.203125 C53.60546875 263.863125 53.60546875 264.523125 53.60546875 265.203125 C51.63773794 266.74656386 49.66687736 268.16895682 47.60546875 269.578125 C46.31035892 270.4883908 45.01612077 271.39989778 43.72265625 272.3125 C41.69213405 273.73820632 39.66154961 275.16381573 37.62988281 276.58789062 C23.58972259 286.50932319 11.81995736 298.21164954 0.60546875 311.203125 C-5.03135556 317.62716098 -10.86012095 323.75906987 -16.984375 329.71484375 C-18.91507617 331.70812842 -20.26474735 333.44100272 -21.70703125 335.765625 C-25.04231531 338.79065008 -26.66326964 338.58727054 -31.08203125 338.953125 C-38.57392749 339.66213726 -41.70968179 342.48209235 -46.50390625 348.0859375 C-47.43976563 349.13394531 -47.43976563 349.13394531 -48.39453125 350.203125 C-49.05453125 350.203125 -49.71453125 350.203125 -50.39453125 350.203125 C-50.73484375 351.0384375 -50.73484375 351.0384375 -51.08203125 351.890625 C-53.54990659 356.23878631 -57.21533005 359.12183769 -61.20703125 362.015625 C-64.96581925 364.76595768 -68.14265057 367.85185196 -71.3828125 371.1875 C-73.99266221 373.80241738 -76.76583605 376.19148727 -79.5703125 378.59375 C-81.21925041 380.04848751 -82.74942994 381.55365706 -84.26953125 383.140625 C-86.39453125 385.203125 -86.39453125 385.203125 -88.39453125 385.203125 C-88.39453125 385.863125 -88.39453125 386.523125 -88.39453125 387.203125 C-89.890625 388.640625 -89.890625 388.640625 -91.83203125 390.203125 C-94.54641363 392.34837544 -94.54641363 392.34837544 -96.39453125 395.203125 C-99.67868929 394.61525892 -101.38161649 393.61467941 -103.78515625 391.32421875 C-104.4083374 390.73648682 -105.03151855 390.14875488 -105.67358398 389.54321289 C-106.64920288 388.60143188 -106.64920288 388.60143188 -107.64453125 387.640625 C-108.31621338 387.00310303 -108.98789551 386.36558105 -109.67993164 385.70874023 C-113.73893031 381.84248869 -117.72207281 377.90721023 -121.65625 373.9140625 C-124.06088381 371.54725439 -126.60160108 369.3587046 -129.15625 367.15625 C-137.22560631 360.11492687 -144.99766256 352.7230078 -152.81542969 345.4050293 C-157.70609438 340.83116625 -162.64985281 336.31925995 -167.609375 331.8203125 C-171.25025393 328.39900972 -174.66490419 324.78144726 -178.04296875 321.1015625 C-182.64569965 317.38573656 -188.69182586 317.99254802 -194.39453125 317.703125 C-199.12106546 317.4632445 -203.7351227 317.0767641 -208.39453125 316.203125 C-208.98234375 314.346875 -208.98234375 314.346875 -209.58203125 312.453125 C-211.23663157 307.44159517 -213.28997275 302.63654176 -215.40625 297.8046875 C-216.39453125 295.203125 -216.39453125 295.203125 -216.39453125 292.203125 C-217.05453125 292.203125 -217.71453125 292.203125 -218.39453125 292.203125 C-221.15155314 287.40830432 -221.92781498 283.61703368 -222.39453125 278.203125 C-223.05453125 278.203125 -223.71453125 278.203125 -224.39453125 278.203125 C-224.39453125 276.883125 -224.39453125 275.563125 -224.39453125 274.203125 C-224.94625 274.08582031 -225.49796875 273.96851563 -226.06640625 273.84765625 C-232.76834545 271.99225362 -239.08544868 268.39357531 -245.26953125 265.25 C-249.59109547 263.1209941 -253.99936889 261.17448459 -258.39453125 259.203125 C-258.39453125 258.543125 -258.39453125 257.883125 -258.39453125 257.203125 C-259.44833984 257.02910156 -259.44833984 257.02910156 -260.5234375 256.8515625 C-265.73358957 255.67484788 -270.51148282 253.32705257 -275.39453125 251.203125 C-276.57015625 250.72875 -277.74578125 250.254375 -278.95703125 249.765625 C-282.27373387 247.63953358 -282.91410294 245.87201255 -284.39453125 242.203125 C-284.80832031 241.25179687 -285.22210938 240.30046875 -285.6484375 239.3203125 C-289.56203983 230.24432306 -289.56203983 230.24432306 -290.39453125 225.203125 C-291.05453125 225.203125 -291.71453125 225.203125 -292.39453125 225.203125 C-293.05453125 222.233125 -293.71453125 219.263125 -294.39453125 216.203125 C-295.05453125 216.203125 -295.71453125 216.203125 -296.39453125 216.203125 C-297.05453125 213.563125 -297.71453125 210.923125 -298.39453125 208.203125 C-299.05453125 208.203125 -299.71453125 208.203125 -300.39453125 208.203125 C-301.04224633 206.28709343 -301.68763073 204.37027387 -302.33203125 202.453125 C-302.69167969 201.38578125 -303.05132812 200.3184375 -303.421875 199.21875 C-304.17435244 196.88576775 -304.84430369 194.58937505 -305.39453125 192.203125 C-306.05453125 192.203125 -306.71453125 192.203125 -307.39453125 192.203125 C-307.61367188 191.54828125 -307.8328125 190.8934375 -308.05859375 190.21875 C-310.13484752 184.24319037 -312.58200309 178.68438145 -315.4765625 173.06640625 C-318.7262494 166.6372473 -321.62807999 160.03507808 -324.61157227 153.47973633 C-325.07104248 152.47064209 -325.5305127 151.46154785 -326.00390625 150.421875 C-326.62217285 149.0596582 -326.62217285 149.0596582 -327.25292969 147.66992188 C-327.97724352 146.10480919 -328.74017559 144.55655305 -329.55322266 143.03564453 C-330.76687135 140.39210214 -330.33229688 138.91318162 -329.39453125 136.203125 C-327.79296875 134.4296875 -327.79296875 134.4296875 -325.76953125 132.828125 C-320.5850324 128.54929618 -315.88786556 124.0042484 -311.55200195 118.86328125 C-305.83187327 112.30194888 -299.5877611 106.23182638 -293.4375 100.078125 C-292.08458843 98.72199607 -290.73175048 97.36579369 -289.37898254 96.00952148 C-286.55919208 93.18377459 -283.73737436 90.36007021 -280.91430664 87.53759766 C-277.28978664 83.91318002 -273.67223784 80.28188751 -270.05634594 76.64886475 C-267.27260468 73.85404372 -264.48436974 71.06374016 -261.6948185 68.27471924 C-260.3579085 66.93662657 -259.02262577 65.59690606 -257.68898582 64.2555542 C-255.8340424 62.39087619 -253.97294725 60.53256591 -252.11010742 58.67578125 C-251.28179665 57.83904121 -251.28179665 57.83904121 -250.43675232 56.98539734 C-246.62285823 53.203125 -246.62285823 53.203125 -244.39453125 53.203125 C-244.39453125 52.543125 -244.39453125 51.883125 -244.39453125 51.203125 C-243.73453125 51.203125 -243.07453125 51.203125 -242.39453125 51.203125 C-242.39453125 50.543125 -242.39453125 49.883125 -242.39453125 49.203125 C-237.77453125 48.543125 -233.15453125 47.883125 -228.39453125 47.203125 C-227.76880595 44.55746125 -227.14380207 41.91163206 -226.51953125 39.265625 C-226.24109375 38.08637451 -226.24109375 38.08637451 -225.95703125 36.88330078 C-225.07123746 33.12101643 -224.19893202 29.35880861 -223.39453125 25.578125 C-221.97515947 19.0619182 -220.13381466 12.63847363 -218.39453125 6.203125 C-210.47453125 6.203125 -202.55453125 6.203125 -194.39453125 6.203125 C-185.50614094 31.28813765 -185.50614094 31.28813765 -184.39453125 37.203125 C-183.55792969 37.02136719 -182.72132813 36.83960938 -181.859375 36.65234375 C-171.84589249 34.48996381 -161.82457286 32.33541621 -151.734375 30.55859375 C-142.42668822 28.91266362 -133.3140737 26.7596045 -124.17016602 24.36010742 C-118.07825561 22.78370767 -112.02617875 21.56765418 -105.80175781 20.63500977 C-103.39228803 20.3196019 -103.39228803 20.3196019 -101.39453125 19.203125 C-99.70354052 19.26502483 -98.01464363 19.39896915 -96.33203125 19.578125 C-94.98431641 19.71347656 -94.98431641 19.71347656 -93.609375 19.8515625 C-91.39453125 20.203125 -91.39453125 20.203125 -90.39453125 21.203125 C-88.93990806 21.52397567 -87.47338989 21.79124723 -86.00390625 22.03515625 C-85.07586182 22.19209961 -84.14781738 22.34904297 -83.19165039 22.51074219 C-81.68332642 22.76065918 -81.68332642 22.76065918 -80.14453125 23.015625 C-71.89844836 24.41240649 -63.67038803 25.87478543 -55.45703125 27.453125 C-54.54598633 27.6281958 -53.63494141 27.8032666 -52.69628906 27.98364258 C-50.59540909 28.3886143 -48.49492113 28.79561902 -46.39453125 29.203125 C-45.73453125 26.893125 -45.07453125 24.583125 -44.39453125 22.203125 C-43.73453125 22.203125 -43.07453125 22.203125 -42.39453125 22.203125 C-42.06453125 20.223125 -41.73453125 18.243125 -41.39453125 16.203125 C-40.73453125 16.203125 -40.07453125 16.203125 -39.39453125 16.203125 C-39.27078125 15.64625 -39.14703125 15.089375 -39.01953125 14.515625 C-38.81328125 13.7525 -38.60703125 12.989375 -38.39453125 12.203125 C-38.183125 11.3884375 -37.97171875 10.57375 -37.75390625 9.734375 C-35.84365615 6.17735756 -33.77160526 5.71860625 -30.01953125 4.390625 C-28.87742187 3.97167969 -27.7353125 3.55273438 -26.55859375 3.12109375 C-23.39453125 2.203125 -23.39453125 2.203125 -19.39453125 2.203125 C-19.39453125 1.543125 -19.39453125 0.883125 -19.39453125 0.203125 C-11.56997387 -2.9797458 -7.71018393 -3.66782619 0 0 Z " fill="#297DA1" transform="translate(610.39453125,392.796875)"/>
<path d="M0 0 C2.90816134 1.34289909 5.87013459 2.48027371 8.85546875 3.640625 C14.93294505 6.18899499 18.33754015 8.46439923 21.16796875 14.578125 C26.60546875 30.890625 26.60546875 30.890625 26.60546875 38.203125 C27.26546875 38.203125 27.92546875 38.203125 28.60546875 38.203125 C28.60546875 41.173125 28.60546875 44.143125 28.60546875 47.203125 C30.09046875 47.29787109 30.09046875 47.29787109 31.60546875 47.39453125 C32.93895125 47.51661063 34.27227786 47.64040119 35.60546875 47.765625 C36.90484375 47.87003906 38.20421875 47.97445312 39.54296875 48.08203125 C44.81915235 49.10204273 47.91877641 52.50224646 51.60546875 56.203125 C52.35828125 56.94248291 53.11109375 57.68184082 53.88671875 58.44360352 C57.1326232 61.65981167 60.33384125 64.91911183 63.5390625 68.17578125 C67.78959626 72.46764921 72.10325533 76.57890405 76.68505859 80.51416016 C79.98456727 83.41601638 83.07307737 86.523633 86.16796875 89.640625 C87.14902588 90.62349487 87.14902588 90.62349487 88.14990234 91.6262207 C92.02026538 95.52805404 95.72453 99.51302754 99.26953125 103.71484375 C100.7016254 105.39198399 100.7016254 105.39198399 103.10546875 107.203125 C105.28696756 108.94832404 106.79829125 110.5407425 108.57421875 112.6640625 C111.53046151 116.08521074 114.65062782 119.24205568 117.91796875 122.3671875 C118.84738281 123.26179687 119.77679687 124.15640625 120.734375 125.078125 C122.18145678 126.4641734 123.62889173 127.85000285 125.09326172 129.21777344 C126.52969825 130.56351265 127.94299657 131.93381688 129.35546875 133.3046875 C130.1959375 134.10213379 131.03640625 134.89958008 131.90234375 135.72119141 C133.60546875 138.203125 133.60546875 138.203125 133.46875 141.36083984 C132.59586116 144.23475722 131.58251836 145.96819936 129.60546875 148.203125 C129.27546875 146.883125 128.94546875 145.563125 128.60546875 144.203125 C128.20344238 144.58009521 127.80141602 144.95706543 127.38720703 145.34545898 C122.80273309 149.64152308 118.20788808 153.9262937 113.60546875 158.203125 C113.0630957 158.70811523 112.52072266 159.21310547 111.96191406 159.73339844 C110.59812727 160.99957822 109.22710495 162.25795264 107.85546875 163.515625 C107.0975 164.21300781 106.33953125 164.91039062 105.55859375 165.62890625 C103.60546875 167.203125 103.60546875 167.203125 100.60546875 168.203125 C100.60546875 168.863125 100.60546875 169.523125 100.60546875 170.203125 C99.3828125 171.4375 99.3828125 171.4375 97.54296875 172.953125 C93.38740684 176.48461842 89.39361812 180.15997363 85.41796875 183.890625 C79.90957171 189.05327781 74.38186612 194.1931918 68.81762695 199.2956543 C66.65485903 201.2844185 64.58490547 203.22731709 62.6796875 205.46875 C59.77324342 207.89899702 57.33815224 207.9564383 53.60546875 208.328125 C49.03590538 208.66101994 49.03590538 208.66101994 44.80462646 210.17254639 C41.91606122 211.52619808 39.27315205 211.79584137 36.10644531 212.18457031 C34.74137964 212.35965805 33.37637213 212.53519973 32.01141357 212.71112061 C31.28050255 212.80297386 30.54959152 212.89482712 29.79653168 212.98946381 C13.83827644 215.01359952 -2.00751407 217.58273883 -17.84765625 220.375 C-18.89672653 220.55973373 -19.94579681 220.74446747 -21.0266571 220.93479919 C-27.47430193 222.07211491 -33.9202446 223.21884779 -40.36566162 224.36871338 C-49.10092208 225.92564864 -57.83832843 227.47050259 -66.57564545 229.01584625 C-69.59162952 229.55035532 -72.60704619 230.08797066 -75.62237549 230.62615967 C-77.46601367 230.95362943 -79.30966142 231.28104531 -81.15332031 231.60839844 C-81.97502213 231.75591049 -82.79672394 231.90342255 -83.64332581 232.05540466 C-84.80604256 232.26118889 -84.80604256 232.26118889 -85.99224854 232.47113037 C-86.65342808 232.58907833 -87.31460762 232.70702629 -87.99582291 232.82854843 C-91.45034553 233.36799844 -94.92514224 233.76945137 -98.39453125 234.203125 C-98.72453125 214.073125 -99.05453125 193.943125 -99.39453125 173.203125 C-109.29453125 171.883125 -119.19453125 170.563125 -129.39453125 169.203125 C-145.40893914 166.61694733 -145.40893914 166.61694733 -148.83203125 165.1796875 C-152.26077974 163.87299981 -155.70896418 163.56644092 -159.33203125 163.203125 C-164.26189357 162.70599603 -168.7084851 161.86276635 -173.39453125 160.203125 C-175.07297566 159.84516292 -176.76196563 159.53407431 -178.45703125 159.265625 C-179.47925781 159.10320312 -180.50148438 158.94078125 -181.5546875 158.7734375 C-187.42632417 157.90135311 -193.303402 157.06675442 -199.18383789 156.25610352 C-200.0577417 156.13420654 -200.93164551 156.01230957 -201.83203125 155.88671875 C-202.61449219 155.77900146 -203.39695312 155.67128418 -204.203125 155.56030273 C-206.30710392 155.2173748 -208.33570014 154.75212709 -210.39453125 154.203125 C-210.39453125 153.543125 -210.39453125 152.883125 -210.39453125 152.203125 C-210.95140625 152.161875 -211.50828125 152.120625 -212.08203125 152.078125 C-214.91017402 151.00801692 -215.89497798 149.37520727 -217.69140625 147.02734375 C-220.73073669 143.77191413 -224.49843424 141.43613168 -228.1640625 138.9375 C-228.90011719 138.36515625 -229.63617188 137.7928125 -230.39453125 137.203125 C-230.39453125 136.543125 -230.39453125 135.883125 -230.39453125 135.203125 C-230.99265625 134.914375 -231.59078125 134.625625 -232.20703125 134.328125 C-234.39453125 133.203125 -234.39453125 133.203125 -237.39453125 131.203125 C-237.39453125 130.543125 -237.39453125 129.883125 -237.39453125 129.203125 C-238.05453125 129.203125 -238.71453125 129.203125 -239.39453125 129.203125 C-239.39453125 128.543125 -239.39453125 127.883125 -239.39453125 127.203125 C-239.9153125 126.99171875 -240.43609375 126.7803125 -240.97265625 126.5625 C-244.4184557 124.62840612 -247.19031154 122.06030097 -250.14453125 119.453125 C-255.08717683 115.14745145 -260.07051805 111.0364145 -265.39453125 107.203125 C-264.88536712 102.82431351 -264.36765114 99.53662306 -261.39453125 96.203125 C-256.0890466 93.85971305 -251.16555307 93.07196541 -245.39453125 93.203125 C-244.36328125 92.8525 -243.33203125 92.501875 -242.26953125 92.140625 C-239.12263021 91.11446162 -238.44268668 91.41371613 -235.39453125 92.203125 C-233.28745632 92.0024512 -231.18055258 91.79174623 -229.08203125 91.515625 C-226.04219031 91.16215512 -223.01226455 91.00106273 -219.95703125 90.828125 C-211.35045159 90.18539326 -204.26633796 87.59614514 -196.39453125 84.203125 C-185.42351676 80.203125 -185.42351676 80.203125 -180.39453125 80.203125 C-180.56057861 79.554646 -180.72662598 78.90616699 -180.89770508 78.23803711 C-183.77858126 66.95135779 -186.57672842 55.70831111 -188.74609375 44.26171875 C-189.47821213 40.80841336 -190.51016147 37.57046978 -191.703125 34.25390625 C-193.56675201 28.72619903 -194.43830753 22.94046734 -195.39453125 17.203125 C-201.66453125 17.203125 -207.93453125 17.203125 -214.39453125 17.203125 C-218.39453125 9.203125 -218.39453125 9.203125 -218.39453125 6.203125 C-210.47453125 6.203125 -202.55453125 6.203125 -194.39453125 6.203125 C-185.50614094 31.28813765 -185.50614094 31.28813765 -184.39453125 37.203125 C-183.55792969 37.02136719 -182.72132813 36.83960938 -181.859375 36.65234375 C-171.84589249 34.48996381 -161.82457286 32.33541621 -151.734375 30.55859375 C-142.42668822 28.91266362 -133.3140737 26.7596045 -124.17016602 24.36010742 C-118.07825561 22.78370767 -112.02617875 21.56765418 -105.80175781 20.63500977 C-103.39228803 20.3196019 -103.39228803 20.3196019 -101.39453125 19.203125 C-99.70354052 19.26502483 -98.01464363 19.39896915 -96.33203125 19.578125 C-94.98431641 19.71347656 -94.98431641 19.71347656 -93.609375 19.8515625 C-91.39453125 20.203125 -91.39453125 20.203125 -90.39453125 21.203125 C-88.93990806 21.52397567 -87.47338989 21.79124723 -86.00390625 22.03515625 C-85.07586182 22.19209961 -84.14781738 22.34904297 -83.19165039 22.51074219 C-81.68332642 22.76065918 -81.68332642 22.76065918 -80.14453125 23.015625 C-71.89844836 24.41240649 -63.67038803 25.87478543 -55.45703125 27.453125 C-54.54598633 27.6281958 -53.63494141 27.8032666 -52.69628906 27.98364258 C-50.59540909 28.3886143 -48.49492113 28.79561902 -46.39453125 29.203125 C-45.73453125 26.893125 -45.07453125 24.583125 -44.39453125 22.203125 C-43.73453125 22.203125 -43.07453125 22.203125 -42.39453125 22.203125 C-42.06453125 20.223125 -41.73453125 18.243125 -41.39453125 16.203125 C-40.73453125 16.203125 -40.07453125 16.203125 -39.39453125 16.203125 C-39.20890625 15.3678125 -39.20890625 15.3678125 -39.01953125 14.515625 C-38.81328125 13.7525 -38.60703125 12.989375 -38.39453125 12.203125 C-38.183125 11.3884375 -37.97171875 10.57375 -37.75390625 9.734375 C-35.84365615 6.17735756 -33.77160526 5.71860625 -30.01953125 4.390625 C-28.87742187 3.97167969 -27.7353125 3.55273438 -26.55859375 3.12109375 C-23.39453125 2.203125 -23.39453125 2.203125 -19.39453125 2.203125 C-19.39453125 1.543125 -19.39453125 0.883125 -19.39453125 0.203125 C-11.56997387 -2.9797458 -7.71018393 -3.66782619 0 0 Z " fill="#44CBA0" transform="translate(610.39453125,392.796875)"/>
<path d="M0 0 C0.67095703 0.58007812 0.67095703 0.58007812 1.35546875 1.171875 C4.07880695 3.51777827 6.79807848 5.84134737 9.625 8.0625 C12.85066601 10.69396438 15.68492688 13.6526155 18.58984375 16.62890625 C22.18487258 20.27284704 25.88967871 23.70815315 29.765625 27.05078125 C32.37851376 29.33020694 34.93930021 31.66212353 37.5 34 C40.64083556 36.86471815 43.79100756 39.71185902 47 42.5 C53.02860628 47.74550897 59.04804496 53.03517306 64.6875 58.69921875 C66.8990522 61.01603589 66.8990522 61.01603589 69.3125 62.6875 C69.869375 63.120625 70.42625 63.55375 71 64 C71 64.66 71 65.32 71 66 C72.68802734 66.20496094 72.68802734 66.20496094 74.41015625 66.4140625 C93.52016098 68.80648567 112.45123782 72.1576854 131.27636719 76.19873047 C140.20605882 78.10106457 149.1794061 79.98327616 158.3125 80.5 C162.80280059 80.83110884 166.68086392 81.68883369 171 83 C172.68114096 83.30409656 174.36682946 83.5833744 176.0546875 83.84765625 C183.7842723 85.10496934 191.47152177 86.56788219 199.1640625 88.03173828 C201.62733675 88.50044463 204.0909778 88.96718228 206.5546875 89.43359375 C209.67398849 90.02433204 212.79218043 90.62047407 215.90966797 91.22070312 C218.36462513 91.69258517 220.81922367 92.14383037 223.28173828 92.57617188 C224.1736084 92.73666016 225.06547852 92.89714844 225.984375 93.0625 C226.71624023 93.18753906 227.44810547 93.31257812 228.20214844 93.44140625 C231.24360423 94.38638871 232.5178859 96.30524709 234 99 C234 99.66 234 100.32 234 101 C234.66 101 235.32 101 236 101 C237.61393669 102.88341969 239.09576022 104.75727297 240.5625 106.75 C240.97435547 107.28882813 241.38621094 107.82765625 241.81054688 108.3828125 C243.8877179 111.1705052 245.5176638 113.51364009 246 117 C246.66 117 247.32 117 248 117 C249.12109375 118.44140625 249.12109375 118.44140625 250.4375 120.5625 C253.17229827 124.80341906 256.06453375 128.88174259 259.0625 132.9375 C259.75351807 133.87722656 259.75351807 133.87722656 260.45849609 134.8359375 C262.54625679 137.6750104 264.63726847 140.51153513 266.73828125 143.34082031 C268.52016094 145.74286401 270.29185835 148.15216497 272.0625 150.5625 C272.90276733 151.68676392 272.90276733 151.68676392 273.76000977 152.83374023 C276.69438959 156.84476626 278.4658138 160.23594811 280 165 C280.99 165.33 281.98 165.66 283 166 C284.91015625 168.44921875 284.91015625 168.44921875 287.0625 171.6875 C287.85284964 172.86546805 288.64456878 174.04251815 289.4375 175.21875 C289.85128906 175.83492187 290.26507812 176.45109375 290.69140625 177.0859375 C292.03418722 179.05000518 293.41474554 180.98096838 294.8125 182.90625 C295.27132568 183.53829346 295.73015137 184.17033691 296.20288086 184.8215332 C297.09906625 186.05147483 297.99825258 187.27923626 298.90063477 188.50463867 C302 192.78066612 302 192.78066612 302 195 C302.66 195 303.32 195 304 195 C304 195.66 304 196.32 304 197 C303.10539062 197.02835938 302.21078125 197.05671875 301.2890625 197.0859375 C292.16037402 197.80611122 287.84963895 199.917475 281.890625 206.8828125 C280.95476562 207.93082031 280.95476562 207.93082031 280 209 C279.34 209 278.68 209 278 209 C277.773125 209.556875 277.54625 210.11375 277.3125 210.6875 C274.84462466 215.03566131 271.1792012 217.91871269 267.1875 220.8125 C263.428712 223.56283268 260.25188068 226.64872696 257.01171875 229.984375 C254.40186904 232.59929238 251.6286952 234.98836227 248.82421875 237.390625 C247.17528084 238.84536251 245.64510131 240.35053206 244.125 241.9375 C242 244 242 244 240 244 C240 244.66 240 245.32 240 246 C238.50390625 247.4375 238.50390625 247.4375 236.5625 249 C233.84811762 251.14525044 233.84811762 251.14525044 232 254 C228.71584196 253.41213392 227.01291476 252.41155441 224.609375 250.12109375 C223.98619385 249.53336182 223.3630127 248.94562988 222.72094727 248.34008789 C222.07053467 247.71223389 221.42012207 247.08437988 220.75 246.4375 C220.07831787 245.79997803 219.40663574 245.16245605 218.71459961 244.50561523 C214.65560094 240.63936369 210.67245844 236.70408523 206.73828125 232.7109375 C204.33364744 230.34412939 201.79293017 228.1555796 199.23828125 225.953125 C191.16892494 218.91180187 183.39686869 211.5198828 175.57910156 204.2019043 C170.68843687 199.62804125 165.74467844 195.11613495 160.78515625 190.6171875 C157.14427732 187.19588472 153.72962706 183.57832226 150.3515625 179.8984375 C145.7488316 176.18261156 139.70270539 176.78942302 134 176.5 C129.27346579 176.2601195 124.65940855 175.8736391 120 175 C119.608125 173.7625 119.21625 172.525 118.8125 171.25 C117.15789968 166.23847017 115.1045585 161.43341676 112.98828125 156.6015625 C112 154 112 154 112 151 C111.34 151 110.68 151 110 151 C107.24297811 146.20517932 106.46671627 142.41390868 106 137 C105.34 137 104.68 137 104 137 C104 135.68 104 134.36 104 133 C103.44828125 132.88269531 102.8965625 132.76539063 102.328125 132.64453125 C95.6261858 130.78912862 89.30908257 127.19045031 83.125 124.046875 C78.80343578 121.9178691 74.39516236 119.97135959 70 118 C70 117.34 70 116.68 70 116 C69.29746094 115.88398437 68.59492188 115.76796875 67.87109375 115.6484375 C62.66094168 114.47172288 57.88304843 112.12392757 53 110 C51.824375 109.525625 50.64875 109.05125 49.4375 108.5625 C46.12079738 106.43640858 45.48042831 104.66888755 44 101 C43.58621094 100.04867187 43.17242187 99.09734375 42.74609375 98.1171875 C38.83249142 89.04119806 38.83249142 89.04119806 38 84 C37.34 84 36.68 84 36 84 C35.34 81.03 34.68 78.06 34 75 C33.34 75 32.68 75 32 75 C31.34 72.36 30.68 69.72 30 67 C29.34 67 28.68 67 28 67 C27.35228492 65.08396843 26.70690052 63.16714887 26.0625 61.25 C25.70285156 60.18265625 25.34320313 59.1153125 24.97265625 58.015625 C24.22017881 55.68264275 23.55022756 53.38625005 23 51 C22.34 51 21.68 51 21 51 C20.78085937 50.34515625 20.56171875 49.6903125 20.3359375 49.015625 C18.63572428 44.12232841 16.8017828 39.42456471 14.4375 34.8125 C11.17514725 28.44796169 8.1354826 21.98718825 5.125 15.5 C4.62411865 14.43628174 4.1232373 13.37256348 3.60717773 12.27661133 C2.90830444 10.76296997 2.90830444 10.76296997 2.1953125 9.21875 C1.77266113 8.31060547 1.35000977 7.40246094 0.91455078 6.46679688 C0 4 0 4 0 0 Z " fill="#1F429F" transform="translate(282,534)"/>
<path d="M0 0 C7.92 0 15.84 0 24 0 C32.88839031 25.08501265 32.88839031 25.08501265 34 31 C34.83660156 30.81824219 35.67320312 30.63648438 36.53515625 30.44921875 C46.54863876 28.28683881 56.56995839 26.13229121 66.66015625 24.35546875 C76.11372998 22.68374061 85.37119446 20.48387189 94.66381836 18.0690918 C102.15938265 16.1367236 109.16003343 14.85731993 116.9375 14.9375 C118.65259766 14.95103516 118.65259766 14.95103516 120.40234375 14.96484375 C121.25957031 14.97644531 122.11679687 14.98804688 123 15 C122.01 15.33 121.02 15.66 120 16 C120.00515373 16.71590868 120.01030746 17.43181736 120.01561737 18.16942024 C120.14333962 35.9330493 120.26851372 53.69669469 120.39115143 71.46035957 C120.45052416 80.05219499 120.51064416 88.64402374 120.57275391 97.23583984 C120.88737597 140.82471432 121.08045071 184.40989691 121 228 C120.67 228 120.34 228 120 228 C119.67 207.87 119.34 187.74 119 167 C109.1 165.68 99.2 164.36 89 163 C72.98559211 160.41382233 72.98559211 160.41382233 69.5625 158.9765625 C66.13375151 157.66987481 62.68556707 157.36331592 59.0625 157 C54.13263768 156.50287103 49.68604615 155.65964135 45 154 C43.32155559 153.64203792 41.63256562 153.33094931 39.9375 153.0625 C38.91527344 152.90007812 37.89304687 152.73765625 36.83984375 152.5703125 C30.96820708 151.69822811 25.09112925 150.86362942 19.21069336 150.05297852 C18.33678955 149.93108154 17.46288574 149.80918457 16.5625 149.68359375 C15.78003906 149.57587646 14.99757813 149.46815918 14.19140625 149.35717773 C12.08742733 149.0142498 10.05883111 148.54900209 8 148 C8 147.34 8 146.68 8 146 C7.443125 145.95875 6.88625 145.9175 6.3125 145.875 C3.48435723 144.80489192 2.49955327 143.17208227 0.703125 140.82421875 C-2.33620544 137.56878913 -6.10390299 135.23300668 -9.76953125 132.734375 C-10.50558594 132.16203125 -11.24164063 131.5896875 -12 131 C-12 130.34 -12 129.68 -12 129 C-12.598125 128.71125 -13.19625 128.4225 -13.8125 128.125 C-16 127 -16 127 -19 125 C-19 124.34 -19 123.68 -19 123 C-19.66 123 -20.32 123 -21 123 C-21 122.34 -21 121.68 -21 121 C-21.52078125 120.78859375 -22.0415625 120.5771875 -22.578125 120.359375 C-26.02392445 118.42528112 -28.79578029 115.85717597 -31.75 113.25 C-36.69264558 108.94432645 -41.6759868 104.8332895 -47 101 C-46.49083587 96.62118851 -45.97311989 93.33349806 -43 90 C-37.69451535 87.65658805 -32.77102182 86.86884041 -27 87 C-25.96875 86.649375 -24.9375 86.29875 -23.875 85.9375 C-20.72809896 84.91133662 -20.04815543 85.21059113 -17 86 C-14.89292507 85.7993262 -12.78602133 85.58862123 -10.6875 85.3125 C-7.64765906 84.95903012 -4.6177333 84.79793773 -1.5625 84.625 C7.04407966 83.98226826 14.12819329 81.39302014 22 78 C32.97101449 74 32.97101449 74 38 74 C37.83395264 73.351521 37.66790527 72.70304199 37.49682617 72.03491211 C34.61594999 60.74823279 31.81780283 49.50518611 29.6484375 38.05859375 C28.91631912 34.60528836 27.88436978 31.36734478 26.69140625 28.05078125 C24.82777924 22.52307403 23.95622372 16.73734234 23 11 C16.73 11 10.46 11 4 11 C0 3 0 3 0 0 Z " fill="#37B19D" transform="translate(392,399)"/>
<path d="M0 0 C-0.90954616 10.23239432 -5.4074116 19.17751625 -10.09399414 28.16577148 C-12.42956325 32.67953859 -14.2903715 37.21197502 -16 42 C-16.66 42 -17.32 42 -18 42 C-18.185625 43.051875 -18.185625 43.051875 -18.375 44.125 C-19.03838345 47.17656387 -19.97211955 50.05340938 -21 53 C-21.66 53 -22.32 53 -23 53 C-23.18175781 53.65226563 -23.36351562 54.30453125 -23.55078125 54.9765625 C-24.98084146 59.94877184 -26.59596018 64.40096731 -29 69 C-29.69971973 70.98867713 -30.37664397 72.98608051 -31 75 C-31.66 75 -32.32 75 -33 75 C-33.12117187 75.63808594 -33.24234375 76.27617188 -33.3671875 76.93359375 C-33.53476562 77.75988281 -33.70234375 78.58617187 -33.875 79.4375 C-34.03742188 80.26121094 -34.19984375 81.08492187 -34.3671875 81.93359375 C-34.57601562 82.61550781 -34.78484375 83.29742188 -35 84 C-35.99 84.495 -35.99 84.495 -37 85 C-37.76222301 86.98350985 -37.76222301 86.98350985 -38.375 89.3125 C-40.35016659 95.5441506 -43.50093937 97.73028827 -49 101 C-49.33 101.66 -49.66 102.32 -50 103 C-50.598125 103.28875 -51.19625 103.5775 -51.8125 103.875 C-54.14041441 104.92467127 -54.14041441 104.92467127 -56 107.0625 C-58 109 -58 109 -60.125 109.5 C-60.74375 109.665 -61.3625 109.83 -62 110 C-62.26554688 110.60328125 -62.53109375 111.2065625 -62.8046875 111.828125 C-64.37965548 114.68983152 -66.18799667 115.6314632 -69 117.25 C-70.3303125 118.03117188 -70.3303125 118.03117188 -71.6875 118.828125 C-74 120 -74 120 -76 120 C-76 120.66 -76 121.32 -76 122 C-77.96773081 123.54343886 -79.93859139 124.96583182 -82 126.375 C-83.29510983 127.2852658 -84.58934798 128.19677278 -85.8828125 129.109375 C-87.9133347 130.53508132 -89.94391914 131.96069073 -91.97558594 133.38476562 C-106.01574616 143.30619819 -117.78551139 155.00852454 -129 168 C-135.40058769 175.29446287 -142.09440184 182.18856909 -149 189 C-150.66781808 190.66551446 -152.33483146 192.33183655 -154 194 C-157.24168771 190.96228365 -159.69542976 187.73478566 -162.1875 184.0625 C-162.97525277 182.91015102 -163.76301343 181.75780744 -164.55078125 180.60546875 C-165.36732735 179.40374085 -166.18373191 178.20191675 -167 177 C-168.62013765 174.62163538 -170.24623253 172.24745993 -171.875 169.875 C-172.59429688 168.82054687 -173.31359375 167.76609375 -174.0546875 166.6796875 C-175.82719302 164.09072193 -175.82719302 164.09072193 -177.5703125 162.4296875 C-179.4361193 160.5638807 -180.63261743 158.50618125 -182 156.25 C-186.22043183 149.50444723 -190.93235407 143.16588073 -195.67626953 136.78515625 C-198.23447341 133.33521402 -200.75409006 129.85726454 -203.2734375 126.37890625 C-204.37545379 124.86051729 -205.4841737 123.34695596 -206.6015625 121.83984375 C-210 117.21682961 -210 117.21682961 -210 115 C-210.66 115 -211.32 115 -212 115 C-213.21485385 113.27578573 -214.34818704 111.49365116 -215.4375 109.6875 C-217.42580622 106.40228561 -219.28854346 103.6948727 -222 101 C-222 100.34 -222 99.68 -222 99 C-222.66 99 -223.32 99 -224 99 C-225.98 95.535 -225.98 95.535 -228 92 C-227.31292969 91.87882813 -226.62585938 91.75765625 -225.91796875 91.6328125 C-225.01691406 91.46523438 -224.11585938 91.29765625 -223.1875 91.125 C-222.29417969 90.96257812 -221.40085937 90.80015625 -220.48046875 90.6328125 C-217.77272154 90.08811551 -217.77272154 90.08811551 -215 88 C-212.04360932 87.34538617 -209.12168037 86.78130406 -206.1394043 86.27587891 C-204.77725548 86.03636253 -204.77725548 86.03636253 -203.3875885 85.79200745 C-200.36766727 85.26301667 -197.34604472 84.74455336 -194.32421875 84.2265625 C-192.20311146 83.85831787 -190.08208508 83.48960689 -187.96113586 83.12045288 C-183.49204242 82.34426145 -179.02210994 81.57315115 -174.55151367 80.80566406 C-168.91224066 79.83723528 -163.27501077 78.85748715 -157.63833427 77.87407303 C-114.70842183 70.39283937 -114.70842183 70.39283937 -95.78898621 68.24649048 C-89.70938702 67.52734092 -84.65526699 66.34091137 -79 64 C-76.453125 63.91015625 -76.453125 63.91015625 -74.25 64.0625 C-67.72482444 63.61075708 -64.16818434 58.83011296 -60.0546875 54.2734375 C-57.28253388 51.20887041 -54.26095466 48.5495855 -51.12792969 45.86083984 C-46.57698239 41.88111058 -42.26614109 37.63036139 -37.91601562 33.43359375 C-37.19478516 32.74652344 -36.47355469 32.05945313 -35.73046875 31.3515625 C-35.08489014 30.73104004 -34.43931152 30.11051758 -33.77416992 29.47119141 C-32 28 -32 28 -29 27 C-29 26.34 -29 25.68 -29 25 C-27.671875 23.66015625 -27.671875 23.66015625 -25.75 22.0625 C-22.09025183 18.95430962 -18.52690108 15.75731132 -15 12.5 C-1.41127652 0 -1.41127652 0 0 0 Z " fill="#266EA7" transform="translate(740,536)"/>
<path d="M0 0 C0.70125 0.33 1.4025 0.66 2.125 1 C2.125 1.66 2.125 2.32 2.125 3 C2.81980469 3.11214844 3.51460938 3.22429687 4.23046875 3.33984375 C7.49532964 4.08446115 10.36100205 5.24400088 13.4375 6.5625 C14.50613281 7.01753906 15.57476563 7.47257813 16.67578125 7.94140625 C17.48402344 8.29074219 18.29226563 8.64007813 19.125 9 C19.125 9.66 19.125 10.32 19.125 11 C20.135625 11.268125 21.14625 11.53625 22.1875 11.8125 C28.7772682 13.71035324 34.7294993 16.76296814 40.79296875 19.9140625 C42.91471962 20.90208049 44.84072496 21.52739137 47.125 22 C47.125 22.66 47.125 23.32 47.125 24 C48.053125 24.04125 48.98125 24.0825 49.9375 24.125 C54.56543277 24.77420901 58.08206316 27.07823495 62.08203125 29.37890625 C66.2728248 31.61148561 70.62258376 33.21217003 75.08203125 34.82421875 C78.21021591 36.03292682 81.14960204 37.45670689 84.125 39 C84.125 39.66 84.125 40.32 84.125 41 C84.723125 41.185625 85.32125 41.37125 85.9375 41.5625 C89.85033509 44.13379163 90.69749913 48.7174974 92.125 53 C92.23908201 55.04853326 92.29427654 57.10052789 92.31787109 59.15209961 C92.33393402 60.42029037 92.34999695 61.68848114 92.36654663 62.99510193 C92.37803146 64.38084238 92.38864044 65.76659033 92.3984375 67.15234375 C92.40376118 67.85068392 92.40908485 68.54902409 92.41456985 69.26852608 C92.44126375 72.96245347 92.46065354 76.65634745 92.47509766 80.3503418 C92.48845565 83.40696007 92.51634572 86.46291368 92.55712891 89.51928711 C92.60640166 93.212174 92.63121098 96.90445658 92.63832474 100.59765816 C92.64504176 102.00391809 92.66027594 103.4101643 92.68421555 104.8162365 C92.71580721 106.78342261 92.7129066 108.75107103 92.70849609 110.71850586 C92.71658295 111.83752792 92.7246698 112.95654999 92.73300171 114.10948181 C92.125 117 92.125 117 89.75576782 119.3271637 C87.09606302 121.01840027 84.84778325 121.94059113 81.8125 122.75 C80.92949219 122.99234375 80.04648437 123.2346875 79.13671875 123.484375 C78.47285156 123.65453125 77.80898438 123.8246875 77.125 124 C77.125 124.66 77.125 125.32 77.125 126 C72.73990428 128.2589887 69.88635688 128.19033922 65.125 127 C62.85501253 125.86711985 60.6882727 124.61414073 58.50390625 123.32421875 C55.36011378 121.5742259 52.10322517 120.32795843 48.75 119.0390625 C43.40713539 116.92417859 38.08580618 114.58751945 33.01953125 111.87109375 C29.9813774 110.4741694 27.4142768 110.71146695 24.125 111 C21.41373616 112.42621684 21.41373616 112.42621684 19.125 114 C18.135 114 17.145 114 16.125 114 C16.125 114.66 16.125 115.32 16.125 116 C12.125 119 12.125 119 2.125 122 C2.125 113.42 2.125 104.84 2.125 96 C0.145 95.67 -1.835 95.34 -3.875 95 C-5.94555664 94.19970703 -5.94555664 94.19970703 -7.78515625 93.2578125 C-8.80512695 92.74154297 -8.80512695 92.74154297 -9.84570312 92.21484375 C-10.53599609 91.85519531 -11.22628906 91.49554688 -11.9375 91.125 C-12.97874023 90.59712891 -12.97874023 90.59712891 -14.04101562 90.05859375 C-27.30948355 83.27945249 -27.30948355 83.27945249 -29.875 77 C-30.17607117 74.05374146 -30.17607117 74.05374146 -30.24487305 70.58251953 C-30.27377121 69.28081818 -30.30266937 67.97911682 -30.33244324 66.63796997 C-30.35209656 65.21960492 -30.37014912 63.80121692 -30.38671875 62.3828125 C-30.39611795 61.66582058 -30.40551716 60.94882866 -30.41520119 60.21010971 C-30.46269913 56.41663023 -30.4964125 52.62328763 -30.52026367 48.82958984 C-30.54799643 44.91896558 -30.62720262 41.01113259 -30.71780682 37.10153389 C-30.77770112 34.08682267 -30.79753669 31.07277419 -30.80677223 28.05752182 C-30.81833284 26.61649181 -30.84512515 25.17549751 -30.88770103 23.7350502 C-31.20007155 12.5031475 -31.20007155 12.5031475 -27.95864868 8.82611084 C-25.64791826 7.25313963 -23.44070669 6.09857043 -20.875 5 C-19.43489115 4.25502165 -17.99691166 3.50588984 -16.5625 2.75 C-15.33496 2.16325132 -14.10582276 1.57983085 -12.875 1 C-12.19953125 0.6390625 -11.5240625 0.278125 -10.828125 -0.09375 C-7.10802234 -1.81987763 -3.78099263 -1.31512787 0 0 Z " fill="#25799C" transform="translate(506.875,237)"/>
<path d="M0 0 C0.495 0.99 0.495 0.99 1 2 C2.90090002 2.43553964 2.90090002 2.43553964 5.19140625 2.5625 C6.48594727 2.67464844 6.48594727 2.67464844 7.80664062 2.7890625 C8.71607422 2.85867188 9.62550781 2.92828125 10.5625 3 C16.94705683 3.50367578 22.80749899 4.36939266 29 6 C31.47406009 6.38823712 33.95345995 6.74430757 36.4375 7.0625 C42.89051095 7.89051095 42.89051095 7.89051095 44 9 C46.47934684 9.32819272 48.9510922 9.61303718 51.4375 9.875 C57.00518748 10.50920016 62.1150975 11.44444083 67.44189453 13.23803711 C77.81377976 16.32742953 89.0478896 16.96973894 99.76635742 18.32543945 C101.76528113 18.57916988 103.76351498 18.83831702 105.76171875 19.09765625 C106.93694092 19.24726807 108.11216309 19.39687988 109.32299805 19.55102539 C112 20 112 20 113 21 C113.09391296 22.90243762 113.11743658 24.80838459 113.11352539 26.71313477 C113.11344986 27.9343251 113.11337433 29.15551544 113.11329651 30.41371155 C113.10818911 31.75627686 113.10297311 33.09884175 113.09765625 34.44140625 C113.09579199 35.80761158 113.09436813 37.17381757 113.09336853 38.5400238 C113.08954394 42.14201695 113.07971417 45.74397 113.06866455 49.34594727 C113.05844916 53.01903745 113.05387064 56.69213409 113.04882812 60.36523438 C113.03809184 67.57684123 113.02101614 74.788415 113 82 C114.2375 81.649375 115.475 81.29875 116.75 80.9375 C119.903292 80.04406727 121.86774164 79.99118706 125 81 C116.36888539 85.45476883 105.62188553 82.32107382 96.5625 80.75 C95.21681635 80.52161371 93.87111307 80.29334313 92.52539062 80.06518555 C84.59403432 78.70515958 76.72840342 77.16431012 68.89672852 75.31616211 C63.1639346 73.97659488 57.46593189 73.1178874 51.625 72.39453125 C49 72 49 72 47 71 C44.65033216 70.67406877 42.29484369 70.3897657 39.9375 70.125 C27.43318525 68.64697211 15.12916408 66.2458372 2.79296875 63.75 C-1.1944083 62.96155881 -5.18614961 62.21358112 -9.1875 61.5 C-10.22741089 61.314375 -10.22741089 61.314375 -11.28833008 61.125 C-15.28784161 60.42714135 -19.29088338 59.80710706 -23.3125 59.25 C-24.20686768 59.12431641 -25.10123535 58.99863281 -26.02270508 58.86914062 C-27.75561685 58.62908908 -29.48981914 58.3981182 -31.2253418 58.17773438 C-36.02581979 57.51285092 -39.74104602 56.47693608 -44 54 C-42.43068387 50.14804223 -39.94959682 47.88256053 -37 45 C-32.53545099 40.0552524 -28.3926467 34.82424688 -24.1875 29.66015625 C-22.32132971 27.39075987 -20.42641005 25.15565004 -18.5 22.9375 C-16.045968 20.29120612 -16.045968 20.29120612 -15 18 C-14.34 18 -13.68 18 -13 18 C-12.77441406 17.45472656 -12.54882812 16.90945313 -12.31640625 16.34765625 C-9.98841577 12.19595809 -6.4689756 8.99947635 -3.21484375 5.55859375 C-0.83340916 3.13658478 -0.83340916 3.13658478 0 0 Z " fill="#2E94A4" transform="translate(399,545)"/>
<path d="M0 0 C2.90816134 1.34289909 5.87013459 2.48027371 8.85546875 3.640625 C14.93294505 6.18899499 18.33754015 8.46439923 21.16796875 14.578125 C26.60546875 30.890625 26.60546875 30.890625 26.60546875 38.203125 C27.26546875 38.203125 27.92546875 38.203125 28.60546875 38.203125 C28.73824219 39.21632813 28.87101563 40.22953125 29.0078125 41.2734375 C29.18614459 42.62500704 29.364533 43.97656914 29.54296875 45.328125 C29.62998047 45.99328125 29.71699219 46.6584375 29.80664062 47.34375 C30.33177433 51.31142688 30.92360889 55.25939498 31.60546875 59.203125 C17.47552271 64.3266377 5.27257941 65.95955815 -9.68798828 64.46459961 C-11.5713804 64.28264823 -13.45856798 64.13775545 -15.34716797 64.02172852 C-24.15866031 63.43797635 -24.15866031 63.43797635 -28.26953125 60.265625 C-33.94624571 56.44757672 -39.68676093 55.8129223 -46.39453125 55.203125 C-46.68328125 54.22988281 -46.97203125 53.25664062 -47.26953125 52.25390625 C-47.64078125 51.24714844 -48.01203125 50.24039063 -48.39453125 49.203125 C-50.34648845 48.2981989 -50.34648845 48.2981989 -52.39453125 48.203125 C-53.05453125 47.873125 -53.71453125 47.543125 -54.39453125 47.203125 C-54.39453125 46.543125 -54.39453125 45.883125 -54.39453125 45.203125 C-56.04453125 44.873125 -57.69453125 44.543125 -59.39453125 44.203125 C-58.89953125 41.233125 -58.89953125 41.233125 -58.39453125 38.203125 C-57.13640625 38.161875 -55.87828125 38.120625 -54.58203125 38.078125 C-52.38463599 37.89548011 -52.38463599 37.89548011 -50.39453125 37.203125 C-48.30820428 34.28470643 -48.30820428 34.28470643 -47.39453125 31.203125 C-46.73453125 31.203125 -46.07453125 31.203125 -45.39453125 31.203125 C-45.41515625 30.089375 -45.43578125 28.975625 -45.45703125 27.828125 C-45.39453125 24.203125 -45.39453125 24.203125 -44.39453125 22.203125 C-43.73453125 22.203125 -43.07453125 22.203125 -42.39453125 22.203125 C-42.06453125 20.223125 -41.73453125 18.243125 -41.39453125 16.203125 C-40.73453125 16.203125 -40.07453125 16.203125 -39.39453125 16.203125 C-39.27078125 15.64625 -39.14703125 15.089375 -39.01953125 14.515625 C-38.81328125 13.7525 -38.60703125 12.989375 -38.39453125 12.203125 C-38.183125 11.3884375 -37.97171875 10.57375 -37.75390625 9.734375 C-35.84365615 6.17735756 -33.77160526 5.71860625 -30.01953125 4.390625 C-28.87742187 3.97167969 -27.7353125 3.55273438 -26.55859375 3.12109375 C-23.39453125 2.203125 -23.39453125 2.203125 -19.39453125 2.203125 C-19.39453125 1.543125 -19.39453125 0.883125 -19.39453125 0.203125 C-11.56997387 -2.9797458 -7.71018393 -3.66782619 0 0 Z " fill="#42C39B" transform="translate(610.39453125,392.796875)"/>
<path d="M0 0 C0.99 0 1.98 0 3 0 C5.10770759 2.88834003 6 4.38462395 6 8 C6.66 8 7.32 8 8 8 C8.32871094 8.66902344 8.65742188 9.33804687 8.99609375 10.02734375 C10.32289283 12.70611154 11.66532448 15.37647046 13.015625 18.04345703 C13.70118606 19.40607765 14.38040291 20.77190091 15.0546875 22.14013672 C16.16708813 24.39304384 17.30070374 26.63431922 18.4375 28.875 C18.78417725 29.587771 19.13085449 30.30054199 19.48803711 31.03491211 C23.12801747 38.11481917 28.13992253 42.11127366 35.08984375 45.86328125 C38.97610439 48.17596396 42.67342262 50.9374367 46 54 C46 54.66 46 55.32 46 56 C46.57234375 56.27328125 47.1446875 56.5465625 47.734375 56.828125 C56.37350197 61.29663895 69.48952324 68.66168332 72.8125 78.375 C72.874375 78.91125 72.93625 79.4475 73 80 C73.66 80 74.32 80 75 80 C75.103125 80.639375 75.20625 81.27875 75.3125 81.9375 C75.539375 82.618125 75.76625 83.29875 76 84 C77.485 84.495 77.485 84.495 79 85 C80.44213867 86.64233398 80.44213867 86.64233398 81.91796875 88.74609375 C82.71557617 89.87821289 82.71557617 89.87821289 83.52929688 91.03320312 C84.07650391 91.82662109 84.62371094 92.62003906 85.1875 93.4375 C85.74630859 94.22705078 86.30511719 95.01660156 86.88085938 95.83007812 C91 101.72965316 91 101.72965316 91 104 C91.66 104 92.32 104 93 104 C97 109.29411765 97 109.29411765 97 113 C98.485 113.495 98.485 113.495 100 114 C100 114.33 100 114.66 100 115 C94.03249934 115.31285926 90.02710208 115.51897145 85 112 C83.47096664 111.34469999 81.9271544 110.7234796 80.375 110.125 C74.09782669 107.68178883 67.83573954 105.05663957 61.89453125 101.87109375 C58.8563774 100.4741694 56.2892768 100.71146695 53 101 C50.28873616 102.42621684 50.28873616 102.42621684 48 104 C47.01 104 46.02 104 45 104 C45 104.66 45 105.32 45 106 C41 109 41 109 31 112 C31 103.42 31 94.84 31 86 C29.02 85.67 27.04 85.34 25 85 C22.92944336 84.19970703 22.92944336 84.19970703 21.08984375 83.2578125 C20.06987305 82.74154297 20.06987305 82.74154297 19.02929688 82.21484375 C18.33900391 81.85519531 17.64871094 81.49554688 16.9375 81.125 C15.89625977 80.59712891 15.89625977 80.59712891 14.83398438 80.05859375 C1.53136792 73.26200529 1.53136792 73.26200529 -1 67 C-1.24723816 64.02009583 -1.24723816 64.02009583 -1.24291992 60.50317383 C-1.24599655 59.18533401 -1.24907318 57.8674942 -1.25224304 56.50971985 C-1.24534683 55.07548853 -1.23807997 53.64125895 -1.23046875 52.20703125 C-1.22927638 50.73540792 -1.22882391 49.26378382 -1.2290802 47.79216003 C-1.22751798 44.71303522 -1.21924601 41.63402711 -1.20581055 38.55493164 C-1.18877623 34.600215 -1.18499762 30.645626 -1.18575573 26.69087696 C-1.18548445 23.65495069 -1.18001086 20.61905255 -1.17275429 17.5831356 C-1.16956428 16.12422587 -1.16759944 14.66531295 -1.16686058 13.20639992 C-1.16470309 11.17380253 -1.15517478 9.14121694 -1.14526367 7.10864258 C-1.14145187 5.9504451 -1.13764008 4.79224762 -1.13371277 3.59895325 C-1 1 -1 1 0 0 Z " fill="#215B9D" transform="translate(478,247)"/>
<path d="M0 0 C0.70125 0.33 1.4025 0.66 2.125 1 C2.125 1.66 2.125 2.32 2.125 3 C2.81980469 3.11214844 3.51460938 3.22429687 4.23046875 3.33984375 C7.49532964 4.08446115 10.36100205 5.24400088 13.4375 6.5625 C14.50613281 7.01753906 15.57476563 7.47257813 16.67578125 7.94140625 C17.48402344 8.29074219 18.29226563 8.64007813 19.125 9 C19.125 9.66 19.125 10.32 19.125 11 C20.135625 11.268125 21.14625 11.53625 22.1875 11.8125 C28.7772682 13.71035324 34.7294993 16.76296814 40.79296875 19.9140625 C42.91471962 20.90208049 44.84072496 21.52739137 47.125 22 C47.125 22.66 47.125 23.32 47.125 24 C48.053125 24.04125 48.98125 24.0825 49.9375 24.125 C54.56543277 24.77420901 58.08206316 27.07823495 62.08203125 29.37890625 C66.2728248 31.61148561 70.62258376 33.21217003 75.08203125 34.82421875 C78.21021591 36.03292682 81.14960204 37.45670689 84.125 39 C84.125 39.66 84.125 40.32 84.125 41 C84.723125 41.185625 85.32125 41.37125 85.9375 41.5625 C89.85033509 44.13379163 90.69749913 48.7174974 92.125 53 C92.23908201 55.04853326 92.29427654 57.10052789 92.31787109 59.15209961 C92.33393402 60.42029037 92.34999695 61.68848114 92.36654663 62.99510193 C92.37803146 64.38084238 92.38864044 65.76659033 92.3984375 67.15234375 C92.40376118 67.85068392 92.40908485 68.54902409 92.41456985 69.26852608 C92.44126375 72.96245347 92.46065354 76.65634745 92.47509766 80.3503418 C92.48845565 83.40696007 92.51634572 86.46291368 92.55712891 89.51928711 C92.60640166 93.212174 92.63121098 96.90445658 92.63832474 100.59765816 C92.64504176 102.00391809 92.66027594 103.4101643 92.68421555 104.8162365 C92.71580721 106.78342261 92.7129066 108.75107103 92.70849609 110.71850586 C92.71658295 111.83752792 92.7246698 112.95654999 92.73300171 114.10948181 C92.125 117 92.125 117 89.73306274 119.34571838 C87.41457378 120.81632475 85.81112198 121.602056 83.125 122 C83.62 120.515 83.62 120.515 84.125 119 C83.17625 119.495 82.2275 119.99 81.25 120.5 C78.125 122 78.125 122 76.125 122 C75.07005219 118.83515656 75.00051077 116.60186045 74.99902344 113.27856445 C74.99521667 112.10336746 74.99140991 110.92817047 74.98748779 109.71736145 C74.98646057 108.44551498 74.98543335 107.17366852 74.984375 105.86328125 C74.97073978 103.8636366 74.95707447 101.86399165 74.94166946 99.86435986 C74.90374507 94.93403674 74.87237712 90.00397212 74.87451172 85.07348633 C74.87514866 82.308913 74.86261562 79.54500419 74.83551025 76.78056335 C74.81026056 74.17961554 74.80372425 71.57840076 74.81829834 68.97737122 C74.7198149 61.8322771 74.1573331 56.38118406 69.125 51 C66.21288341 48.95351161 66.21288341 48.95351161 62.9375 47.75 C61.7928125 47.27046875 60.648125 46.7909375 59.46875 46.296875 C57.44876881 45.51342435 55.42812906 44.73166464 53.40625 43.953125 C49.23208592 42.34158064 45.50993919 40.69100764 41.75 38.25 C35.84529684 34.52870798 29.40336024 32.18646867 22.90478516 29.71582031 C21.63707275 29.23000488 21.63707275 29.23000488 20.34375 28.734375 C19.57998047 28.44788086 18.81621094 28.16138672 18.02929688 27.86621094 C16.125 27 16.125 27 14.125 25 C10.87845729 23.67425547 7.58830304 22.50428179 4.2890625 21.31640625 C1.125 20 1.125 20 -0.875 18.46875 C-3.57719026 16.48432903 -6.28184297 15.83466116 -9.5 14.9375 C-15.66127145 13.21372855 -15.66127145 13.21372855 -17.875 11 C-19.84190374 10.32707499 -19.84190374 10.32707499 -22 9.875 C-23.27875 9.58625 -24.5575 9.2975 -25.875 9 C-21.84947959 5.47766964 -17.66105322 3.26457389 -12.875 1 C-12.194375 0.63648438 -11.51375 0.27296875 -10.8125 -0.1015625 C-7.10041663 -1.82289148 -3.77083787 -1.31159578 0 0 Z " fill="#4CD09D" transform="translate(506.875,237)"/>
<path d="M0 0 C-0.90954616 10.23239432 -5.4074116 19.17751625 -10.09399414 28.16577148 C-12.42956325 32.67953859 -14.2903715 37.21197502 -16 42 C-16.66 42 -17.32 42 -18 42 C-18.185625 43.051875 -18.185625 43.051875 -18.375 44.125 C-19.03838345 47.17656387 -19.97211955 50.05340938 -21 53 C-21.66 53 -22.32 53 -23 53 C-23.18175781 53.65226563 -23.36351562 54.30453125 -23.55078125 54.9765625 C-24.98084146 59.94877184 -26.59596018 64.40096731 -29 69 C-29.69971973 70.98867713 -30.37664397 72.98608051 -31 75 C-31.66 75 -32.32 75 -33 75 C-33.12117187 75.63808594 -33.24234375 76.27617188 -33.3671875 76.93359375 C-33.61855469 78.17302734 -33.61855469 78.17302734 -33.875 79.4375 C-34.03742187 80.26121094 -34.19984375 81.08492187 -34.3671875 81.93359375 C-34.57601562 82.61550781 -34.78484375 83.29742188 -35 84 C-35.99 84.495 -35.99 84.495 -37 85 C-37.83623351 87.0137458 -37.83623351 87.0137458 -38.5 89.375 C-39.41441035 92.42634757 -40.19642993 94.2946449 -42 97 C-42.99 96.505 -42.99 96.505 -44 96 C-44.1546875 95.13375 -44.1546875 95.13375 -44.3125 94.25 C-45.12500044 91.59090766 -46.49478806 90.40129801 -48.4921875 88.53515625 C-50.26924149 86.7258759 -51.73131806 84.78079562 -53.25 82.75 C-57.08319079 77.72314014 -61.459126 73.38247142 -66 69 C-66.43441406 68.42378906 -66.86882813 67.84757813 -67.31640625 67.25390625 C-70.08333287 65.1931558 -72.82444375 65.71993882 -76.1875 65.8125 C-78.09595703 65.85310547 -78.09595703 65.85310547 -80.04296875 65.89453125 C-81.01878906 65.92933594 -81.99460937 65.96414063 -83 66 C-79.91589714 64.19159423 -78.02477831 63.94876108 -74.5 64.125 C-67.81433011 63.61223476 -64.27662553 58.94772603 -60.0546875 54.2734375 C-57.28253388 51.20887041 -54.26095466 48.5495855 -51.12792969 45.86083984 C-46.57698239 41.88111058 -42.26614109 37.63036139 -37.91601562 33.43359375 C-37.19478516 32.74652344 -36.47355469 32.05945313 -35.73046875 31.3515625 C-35.08489014 30.73104004 -34.43931152 30.11051758 -33.77416992 29.47119141 C-32 28 -32 28 -29 27 C-29 26.34 -29 25.68 -29 25 C-27.671875 23.66015625 -27.671875 23.66015625 -25.75 22.0625 C-22.09025183 18.95430962 -18.52690108 15.75731132 -15 12.5 C-1.41127652 0 -1.41127652 0 0 0 Z " fill="#2F95A4" transform="translate(740,536)"/>
<path d="M0 0 C2.56236433 5.64793395 3.79672723 11.97033695 5.25 17.97265625 C5.94358439 20.77228075 6.70880702 23.53920378 7.5 26.3125 C9.05641527 31.93018636 10.13708255 37.61436542 11.23828125 43.3359375 C12.10509986 47.50555726 13.21203932 51.55963716 14.44921875 55.6328125 C15.03777866 58.16236785 15.09670811 60.41190665 15 63 C14.32195312 63.17015625 13.64390625 63.3403125 12.9453125 63.515625 C8.20071091 64.75106142 3.60019533 66.0707733 -0.9375 67.9375 C-2.62493154 68.62516802 -4.31243363 69.31266294 -6 70 C-6.88945312 70.36609375 -7.77890625 70.7321875 -8.6953125 71.109375 C-16.24527756 73.94832644 -23.23965019 74.58102147 -31.21484375 74.82421875 C-34.28970809 74.96701431 -37.01944746 75.28256759 -40 76 C-40 74.35 -40 72.7 -40 71 C-32.74 71.33 -25.48 71.66 -18 72 C-18.2475 67.545 -18.2475 67.545 -18.5 63 C-19.5024318 42.02893854 -19.08504041 20.98820556 -19 0 C-17.2410013 -0.16530032 -15.48185848 -0.32906747 -13.72265625 -0.4921875 C-12.25324585 -0.62923096 -12.25324585 -0.62923096 -10.75415039 -0.76904297 C-2.8617627 -1.43088135 -2.8617627 -1.43088135 0 0 Z " fill="#2D9099" transform="translate(415,410)"/>
<path d="M0 0 C1.5843317 0.08768248 3.16753567 0.19587329 4.75 0.3125 C6.07257813 0.39951172 6.07257813 0.39951172 7.421875 0.48828125 C10.38788912 1.07699011 11.61865827 2.18713647 14 4 C16.14399603 4.73632187 18.31435968 5.39844762 20.5 6 C24.73623736 7.16593689 27.55477013 8.32890073 31 11 C33.68546789 12.06688528 36.40115734 12.94601035 39.1484375 13.83984375 C42 15 42 15 44.890625 16.9609375 C48.25041269 19.16421536 51.60108432 20.42454234 55.375 21.6875 C62.15869784 24.07960442 68.20175929 27.18285154 74.3996582 30.80981445 C79.44131347 33.7452952 84.51475769 36.00719637 90 38 C92.34479006 38.97522914 94.67101894 39.98739954 97 41 C97 41.33 97 41.66 97 42 C79.70917921 42.38332311 62.49641617 42.03402153 45.23278809 40.98989868 C43.24440849 40.87164157 41.25552373 40.76159224 39.26623535 40.65975952 C36.45141794 40.51238242 33.64044613 40.33309965 30.828125 40.14453125 C29.97943848 40.10470123 29.13075195 40.06487122 28.25634766 40.02383423 C25.88769531 39.84301758 25.88769531 39.84301758 22 39 C20.05126953 36.61694336 20.05126953 36.61694336 19 34 C18.45601563 33.00484375 17.91203125 32.0096875 17.3515625 30.984375 C16.49691406 29.38335937 16.49691406 29.38335937 15.625 27.75 C13.11514854 23.05002338 10.54417181 18.40003557 7.84765625 13.8046875 C7 12 7 12 7 9 C6.34 9 5.68 9 5 9 C2 3.25 2 3.25 2 1 C1.34 0.67 0.68 0.34 0 0 Z " fill="#2F8E9A" transform="translate(479,246)"/>
<path d="M0 0 C19 6 19 6 25 12 C25.3779678 16.9135814 24.55757849 20.39523158 23 25 C22.49022183 27.18056946 22.0124248 29.36879888 21.5625 31.5625 C21.30597656 32.77421875 21.04945313 33.9859375 20.78515625 35.234375 C20.2621486 37.74273008 19.74910335 40.25318325 19.24609375 42.765625 C18.99988281 43.93609375 18.75367188 45.1065625 18.5 46.3125 C18.2834375 47.38113281 18.066875 48.44976562 17.84375 49.55078125 C17.5653125 50.35902344 17.286875 51.16726563 17 52 C13.65466733 53.11511089 13.11946434 52.93410412 10 51.6875 C9.319375 51.42324219 8.63875 51.15898437 7.9375 50.88671875 C6 50 6 50 3 48 C0.78415454 47.55296766 -1.44841961 47.18536758 -3.6875 46.875 C-4.86699219 46.70742188 -6.04648437 46.53984375 -7.26171875 46.3671875 C-8.61716797 46.18542969 -8.61716797 46.18542969 -10 46 C-10.28875 45.02675781 -10.5775 44.05351562 -10.875 43.05078125 C-11.24625 42.04402344 -11.6175 41.03726563 -12 40 C-13.9519572 39.0950739 -13.9519572 39.0950739 -16 39 C-16.66 38.67 -17.32 38.34 -18 38 C-18 37.34 -18 36.68 -18 36 C-19.65 35.67 -21.3 35.34 -23 35 C-22.505 32.03 -22.505 32.03 -22 29 C-20.741875 28.95875 -19.48375 28.9175 -18.1875 28.875 C-15.99010474 28.69235511 -15.99010474 28.69235511 -14 28 C-11.91367303 25.08158143 -11.91367303 25.08158143 -11 22 C-10.34 22 -9.68 22 -9 22 C-9.020625 20.88625 -9.04125 19.7725 -9.0625 18.625 C-9 15 -9 15 -8 13 C-7.34 13 -6.68 13 -6 13 C-5.67 11.02 -5.34 9.04 -5 7 C-4.34 7 -3.68 7 -3 7 C-2.87625 6.401875 -2.7525 5.80375 -2.625 5.1875 C-2 3 -2 3 0 0 Z " fill="#28799D" transform="translate(574,402)"/>
<path d="M0 0 C0.11587901 8.27539035 0.20470646 16.55044147 0.25906086 24.82644272 C0.28514926 28.66941749 0.32053148 32.511837 0.37719727 36.35449219 C0.43154711 40.06333109 0.46142624 43.77163618 0.47438622 47.48084259 C0.48362104 48.89549413 0.50165527 50.31011661 0.52865028 51.72454071 C0.56496828 53.70636979 0.5670426 55.6887367 0.56762695 57.67089844 C0.57873001 58.79896912 0.58983307 59.92703979 0.60127258 61.08929443 C0 64 0 64 -2.39094543 66.34869385 C-4.70920459 67.81595163 -6.31559495 68.60231036 -9 69 C-8.67 68.01 -8.34 67.02 -8 66 C-8.94875 66.495 -9.8975 66.99 -10.875 67.5 C-14 69 -14 69 -16 69 C-17.05111609 65.84665174 -17.12070472 63.64487717 -17.11352539 60.33520508 C-17.11344986 59.17422806 -17.11337433 58.01325104 -17.11329651 56.8170929 C-17.10813522 55.56389755 -17.10297394 54.31070221 -17.09765625 53.01953125 C-17.0962413 51.73640549 -17.09482635 50.45327972 -17.09336853 49.13127136 C-17.08955405 45.72329759 -17.07973291 42.31536657 -17.06866455 38.90740967 C-17.05842743 35.42851337 -17.05386598 31.94961015 -17.04882812 28.47070312 C-17.03810967 21.64711788 -17.02104609 14.82356099 -17 8 C-16.39099854 7.70109863 -15.78199707 7.40219727 -15.15454102 7.09423828 C-11.7505642 5.36544235 -8.57032588 3.27277627 -5.33984375 1.2421875 C-3 0 -3 0 0 0 Z " fill="#43BFA1" transform="translate(599,290)"/>
<path d="M0 0 C0.66 0 1.32 0 2 0 C5.07407507 5.94723354 5.46756786 10.92277352 5.51171875 17.55859375 C5.53864555 19.08976585 5.53864555 19.08976585 5.56611633 20.65187073 C5.62000594 23.91370392 5.6538801 27.17540174 5.6875 30.4375 C5.72073134 32.56317134 5.75522621 34.68882332 5.79101562 36.81445312 C6.01728787 51.20942194 6.03634846 65.60358477 6 80 C3.03 79.67 0.06 79.34 -3 79 C-3.33 78.01 -3.66 77.02 -4 76 C-5.97583715 75.26480478 -7.98177598 74.60927518 -10 74 C-12.01470098 73.02995879 -14.01922047 72.03755118 -16 71 C-14.96335097 64.26178131 -13.38409213 57.65075036 -11.8515625 51.01171875 C-9.74184374 41.86418362 -7.71435975 32.71846243 -5.9375 23.5 C-4.39296925 15.51362668 -2.41777626 7.76774928 0 0 Z " fill="#235D9C" transform="translate(391,402)"/>
<path d="M0 0 C0 3 0 3 -1.6796875 5.04296875 C-2.40414062 5.75066406 -3.12859375 6.45835937 -3.875 7.1875 C-4.59429688 7.90292969 -5.31359375 8.61835937 -6.0546875 9.35546875 C-8 11 -8 11 -10 11 C-10.226875 11.556875 -10.45375 12.11375 -10.6875 12.6875 C-13.15537534 17.03566131 -16.8207988 19.91871269 -20.8125 22.8125 C-24.571288 25.56283268 -27.74811932 28.64872696 -30.98828125 31.984375 C-33.59813096 34.59929238 -36.3713048 36.98836227 -39.17578125 39.390625 C-40.82471916 40.84536251 -42.35489869 42.35053206 -43.875 43.9375 C-46 46 -46 46 -48 46 C-48 46.66 -48 47.32 -48 48 C-49.53125 49.2890625 -49.53125 49.2890625 -51.5 50.625 C-52.1496875 51.07101562 -52.799375 51.51703125 -53.46875 51.9765625 C-53.9740625 52.31429687 -54.479375 52.65203125 -55 53 C-56.17438197 49.52260925 -56.05097762 49.10979796 -54.375 45.5 C-54.00246094 44.80777344 -53.62992188 44.11554687 -53.24609375 43.40234375 C-49.70343201 36.5724473 -47.03005891 29.32835338 -44.67578125 22.015625 C-39.36786962 6.18393481 -39.36786962 6.18393481 -35 4 C-32.20801632 3.65026731 -29.42411906 3.34130464 -26.625 3.0625 C-20.19120913 2.39240688 -13.84233721 1.5606116 -7.48046875 0.3671875 C-4.95009769 -0.00738711 -2.55401047 -0.06419416 0 0 Z " fill="#2A59A3" transform="translate(570,732)"/>
<path d="M0 0 C0.66 0 1.32 0 2 0 C2.06058594 0.59167969 2.12117187 1.18335938 2.18359375 1.79296875 C2.62012371 5.90978208 3.08671346 9.95544533 4 14 C4.639375 14.08765625 5.27875 14.1753125 5.9375 14.265625 C10.18235768 15.28352454 14.01493664 16.99036163 18 18.75 C18.7940625 19.08515625 19.588125 19.4203125 20.40625 19.765625 C25.21514032 21.88153674 28.64632085 23.91608426 32 28 C32 28.66 32 29.32 32 30 C32.66 30 33.32 30 34 30 C33.505 31.485 33.505 31.485 33 33 C9.02597715 36.49621167 9.02597715 36.49621167 0 32 C-1.13671875 30.046875 -1.13671875 30.046875 -2 28 C-3.6454378 26.31237149 -5.31288577 24.6459651 -7 23 C-9.56242151 20.43757849 -9.98086842 19.48785531 -10.125 15.8125 C-8.56813994 10.53647424 -5.48847016 7.15716075 -2 3 C-1.34 2.01 -0.68 1.02 0 0 Z " fill="#33A799" transform="translate(580,484)"/>
<path d="M0 0 C4.34936054 0.79079283 7.240454 3.10278915 10.78125 5.625 C12.86261694 7.1211067 12.86261694 7.1211067 15.05078125 7.2890625 C18.35619151 8.494643 19.14715651 11.34777397 20.6875 14.375 C21.28949219 15.53773438 21.89148438 16.70046875 22.51171875 17.8984375 C24 21 24 21 25 24 C21.96050698 24.67684298 18.91810835 25.33961872 15.875 26 C15.0190625 26.19078125 14.163125 26.3815625 13.28125 26.578125 C4.56624819 28.45520231 4.56624819 28.45520231 0 28 C-0.66 27.34 -1.32 26.68 -2 26 C-2 25.01 -2 24.02 -2 23 C-3.65 23 -5.3 23 -7 23 C-8.125 17.25 -8.125 17.25 -7 15 C-7.66 14.34 -8.32 13.68 -9 13 C-8.15115234 11.96939453 -8.15115234 11.96939453 -7.28515625 10.91796875 C-6.55167969 10.01691406 -5.81820313 9.11585938 -5.0625 8.1875 C-3.96615234 6.84751953 -3.96615234 6.84751953 -2.84765625 5.48046875 C-0.84817309 3.06637081 -0.84817309 3.06637081 0 0 Z " fill="#28779F" transform="translate(407,500)"/>
<path d="M0 0 C7.92 0 15.84 0 24 0 C27.375 9 27.375 9 27 14 C26.34 14 25.68 14 25 14 C24.67 14.99 24.34 15.98 24 17 C23.67 15.02 23.34 13.04 23 11 C16.73 11 10.46 11 4 11 C0 3 0 3 0 0 Z " fill="#39A497" transform="translate(392,399)"/>
<path d="M0 0 C0.66 0 1.32 0 2 0 C2.06058594 0.63808594 2.12117187 1.27617187 2.18359375 1.93359375 C2.26738281 2.75988281 2.35117187 3.58617187 2.4375 4.4375 C2.51871094 5.26121094 2.59992187 6.08492188 2.68359375 6.93359375 C2.78930815 8.98662025 2.78930815 8.98662025 4 10 C4.3524287 17.05893948 4.09460611 24.02188603 3 31 C-2.08685675 30.17599513 -3.95244652 26.83923637 -7 23 C-7.639375 22.34 -8.27875 21.68 -8.9375 21 C-10.73697356 17.61275565 -10.0726178 15.63498253 -9 12 C-6.87422668 8.81399061 -4.45920934 5.93060513 -2 3 C-1.34 2.01 -0.68 1.02 0 0 Z " fill="#25759C" transform="translate(580,484)"/>
<path d="M0 0 C0 6.66316661 -5.7066741 11.02793402 -10.1171875 15.453125 C-10.81135773 16.15395203 -11.50552795 16.85477905 -12.22073364 17.57684326 C-13.6856944 19.05190209 -15.15335567 20.5242832 -16.62353516 21.99414062 C-18.87080015 24.24579195 -21.10157814 26.51295928 -23.33203125 28.78125 C-24.75943511 30.21451988 -26.18778889 31.64684448 -27.6171875 33.078125 C-28.61430252 34.09679657 -28.61430252 34.09679657 -29.63156128 35.13604736 C-35.39974185 40.84794356 -35.39974185 40.84794356 -40 41 C-35.56583328 35.68931195 -30.88483314 30.75163383 -25.9765625 25.87890625 C-25.23038666 25.13414536 -24.48421082 24.38938446 -23.71542358 23.62205505 C-21.35430611 21.26649173 -18.98971838 18.91444784 -16.625 16.5625 C-15.01409144 14.95661237 -13.40341204 13.35049484 -11.79296875 11.74414062 C-7.86462487 7.82676487 -3.93343326 3.91226513 0 0 Z " fill="#387FA3" transform="translate(352,458)"/>
<path d="M0 0 C0.33 0.99 0.66 1.98 1 3 C-0.28725907 4.70250393 -1.62131719 6.37064759 -3 8 C-3 8.66 -3 9.32 -3 10 C3.71927345 13.84903263 10.40598448 17.10943636 17.6640625 19.82421875 C20 21 20 21 21 24 C21.66 24.33 22.32 24.66 23 25 C20.03824877 24.38722388 18.61941217 23.74627478 16 22 C13.78415454 21.55296766 11.55158039 21.18536758 9.3125 20.875 C8.13300781 20.70742188 6.95351563 20.53984375 5.73828125 20.3671875 C4.83464844 20.24601562 3.93101562 20.12484375 3 20 C2.71125 19.02675781 2.4225 18.05351562 2.125 17.05078125 C1.75375 16.04402344 1.3825 15.03726562 1 14 C-0.9519572 13.0950739 -0.9519572 13.0950739 -3 13 C-3.66 12.67 -4.32 12.34 -5 12 C-5 11.34 -5 10.68 -5 10 C-6.65 9.67 -8.3 9.34 -10 9 C-9.67 7.02 -9.34 5.04 -9 3 C-5.92382812 2.70703125 -5.92382812 2.70703125 -2.84765625 2.4140625 C-2.23792969 2.27742188 -1.62820313 2.14078125 -1 2 C-0.67 1.34 -0.34 0.68 0 0 Z " fill="#298E91" transform="translate(561,428)"/>
<path d="M0 0 C2.71738288 2.71738288 2.27337936 4.20607324 2.31884766 8.01025391 C2.33871735 9.27141022 2.35858704 10.53256653 2.37905884 11.8319397 C2.39093614 13.21347885 2.40259895 14.59501986 2.4140625 15.9765625 C2.4327671 17.38619124 2.45233998 18.79580871 2.4727478 20.20541382 C2.52415012 23.91745362 2.56373219 27.62952977 2.60089111 31.34173584 C2.64088022 35.12895759 2.69199571 38.91602715 2.7421875 42.703125 C2.83904257 50.13531238 2.92341637 57.56757317 3 65 C3.94875 64.505 4.8975 64.01 5.875 63.5 C9 62 9 62 11 62 C10.67 62.99 10.34 63.98 10 65 C6.9375 66.1875 6.9375 66.1875 4 67 C4 67.66 4 68.32 4 69 C3.34 69 2.68 69 2 69 C0.58869497 66.17738993 0.83605673 63.77918516 0.79467773 60.62255859 C0.78477814 59.96877731 0.77487854 59.31499603 0.76467896 58.6414032 C0.73305289 56.47711833 0.70830228 54.3128115 0.68359375 52.1484375 C0.66302517 50.64913355 0.64202872 49.14983541 0.62062073 47.65054321 C0.56539012 43.70174869 0.51598524 39.75290174 0.46777344 35.80401611 C0.41756561 31.77554654 0.3618758 27.74715322 0.30664062 23.71875 C0.19904697 15.81256444 0.09760471 7.90631515 0 0 Z " fill="#2D9A9C" transform="translate(580,294)"/>
<path d="M0 0 C0.99 0.33 1.98 0.66 3 1 C2.649375 1.556875 2.29875 2.11375 1.9375 2.6875 C0.72212462 5.68542594 0.97995 6.93984999 2 10 C4.27004006 13.83558492 6.73666867 16.96976377 10 20 C9.01 20.33 8.02 20.66 7 21 C5.30824337 19.69864875 3.64295195 18.36244796 2 17 C0.68 16.67 -0.64 16.34 -2 16 C-2.66 11.71 -3.32 7.42 -4 3 C-2.68 2.01 -1.36 1.02 0 0 Z " fill="#2F9E94" transform="translate(570,494)"/>
<path d="M0 0 C1.67056149 0.31323028 3.33605325 0.65334443 5 1 C6.134375 1.20625 7.26875 1.4125 8.4375 1.625 C12.68832169 2.68770542 16.52857995 4.56212627 20.4375 6.5 C21.06519287 6.8088916 21.69288574 7.1177832 22.33959961 7.43603516 C26.872942 9.745884 26.872942 9.745884 28 12 C29.64142963 13.0409066 31.30712215 14.04504326 33 15 C29.58730275 15 27.88540574 14.18893471 24.8125 12.75 C23.82894531 12.29109375 22.84539062 11.8321875 21.83203125 11.359375 C18.91065981 9.95711671 16.01353164 8.51521192 13.125 7.046875 C8.80343578 4.9178691 4.39516236 2.97135959 0 1 C0 0.67 0 0.34 0 0 Z " fill="#3D52AE" transform="translate(352,651)"/>
<path d="M0 0 C-1.56282982 3.76603869 -3.9063475 6.13639151 -6.7890625 8.984375 C-7.25234955 9.44483215 -7.7156366 9.90528931 -8.19296265 10.37969971 C-9.66565898 11.84125078 -11.14517403 13.29567168 -12.625 14.75 C-13.62806322 15.74302611 -14.63067257 16.73651089 -15.6328125 17.73046875 C-18.08330835 20.15897941 -20.5399667 22.58114675 -23 25 C-23.66 24.67 -24.32 24.34 -25 24 C-2.7851632 0 -2.7851632 0 0 0 Z " fill="#D7E3E9" transform="translate(637,678)"/>
<path d="M0 0 C4.04662773 0.85301664 7.84649481 2.37660597 11.6875 3.875 C12.37650391 4.13152344 13.06550781 4.38804687 13.77539062 4.65234375 C15.55336484 5.3481488 17.28205532 6.16693153 19 7 C19.33 7.99 19.66 8.98 20 10 C20.66 10.33 21.32 10.66 22 11 C19.03824877 10.38722388 17.61941217 9.74627478 15 8 C12.78415454 7.55296766 10.55158039 7.18536758 8.3125 6.875 C7.13300781 6.70742188 5.95351563 6.53984375 4.73828125 6.3671875 C3.38283203 6.18542969 3.38283203 6.18542969 2 6 C1.34 4.02 0.68 2.04 0 0 Z " fill="#34AF97" transform="translate(562,442)"/>
<path d="M0 0 C0.33 0 0.66 0 1 0 C1.1962913 4.90728259 0.57385073 8.39208325 -1 13 C-1.50977817 15.18056946 -1.9875752 17.36879888 -2.4375 19.5625 C-3.86432099 26.39813728 -5.40759717 33.20123048 -7 40 C-7.33 40 -7.66 40 -8 40 C-7.28871955 32.48759977 -5.99601354 25.15579006 -4.5625 17.75 C-4.34529297 16.59242188 -4.12808594 15.43484375 -3.90429688 14.2421875 C-3.68966797 13.12585938 -3.47503906 12.00953125 -3.25390625 10.859375 C-3.06127197 9.85358398 -2.8686377 8.84779297 -2.67016602 7.81152344 C-2.01499737 5.06291791 -1.11889057 2.59049101 0 0 Z " fill="#329B9F" transform="translate(598,414)"/>
<path d="M0 0 C0.33 0 0.66 0 1 0 C1.33 6.93 1.66 13.86 2 21 C4.97 21 7.94 21 11 21 C10.67 21.66 10.34 22.32 10 23 C5.05 24.485 5.05 24.485 0 26 C0 17.42 0 8.84 0 0 Z " fill="#2E62A1" transform="translate(509,333)"/>
<path d="M0 0 C7.35251669 0.53410863 14.67902003 1.13140916 22 2 C22 2.33 22 2.66 22 3 C20.83082031 3.06058594 19.66164063 3.12117188 18.45703125 3.18359375 C16.90884386 3.26804034 15.36066732 3.35268625 13.8125 3.4375 C13.04357422 3.47681641 12.27464844 3.51613281 11.48242188 3.55664062 C7.56748925 3.77507034 3.82879312 4.08692108 0 5 C0 3.35 0 1.7 0 0 Z " fill="#2F98A1" transform="translate(375,481)"/>
<path d="M0 0 C1.83590188 0.0377638 3.67051617 0.15454199 5.5 0.3125 C6.5003125 0.39113281 7.500625 0.46976562 8.53125 0.55078125 C9.75328125 0.77314453 9.75328125 0.77314453 11 1 C11.33 1.66 11.66 2.32 12 3 C10 6 10 6 7.6171875 6.51171875 C6.71226562 6.56972656 5.80734375 6.62773437 4.875 6.6875 C3.96492187 6.75324219 3.05484375 6.81898438 2.1171875 6.88671875 C1.06917969 6.94279297 1.06917969 6.94279297 0 7 C-0.33 6.34 -0.66 5.68 -1 5 C0.32 4.34 1.64 3.68 3 3 C1.68 2.34 0.36 1.68 -1 1 C-0.67 0.67 -0.34 0.34 0 0 Z " fill="#3AB99A" transform="translate(550,425)"/>
<path d="M0 0 C0.99 0.33 1.98 0.66 3 1 C2.01 2.485 2.01 2.485 1 4 C0.34 4 -0.32 4 -1 4 C-0.71890887 5.64767247 -0.42481474 7.29313145 -0.125 8.9375 C0.03742187 9.85402344 0.19984375 10.77054687 0.3671875 11.71484375 C0.57601562 12.46894531 0.78484375 13.22304688 1 14 C1.66 14.33 2.32 14.66 3 15 C2.67 15.66 2.34 16.32 2 17 C0.68 16.67 -0.64 16.34 -2 16 C-2.66 11.71 -3.32 7.42 -4 3 C-2.68 2.01 -1.36 1.02 0 0 Z " fill="#38B097" transform="translate(570,494)"/>
<path d="M0 0 C-3.79541663 2.21399303 -7.75629421 3.00980198 -12 4 C-12 4.33 -12 4.66 -12 5 C-15.96 5 -19.92 5 -24 5 C-20.47485241 2.64990161 -17.21005848 2.09632564 -13.125 1.375 C-12.06345703 1.17390625 -12.06345703 1.17390625 -10.98046875 0.96875 C-7.27966426 0.29337041 -3.76276687 -0.16231543 0 0 Z " fill="#62C9B1" transform="translate(507,414)"/>
<path d="M0 0 C5.08335725 0.15404113 7.35754718 3.02068432 10.64453125 6.50390625 C11.09183594 6.99761719 11.53914063 7.49132812 12 8 C11.67 8.99 11.34 9.98 11 11 C9.35086118 9.54540569 7.70578218 8.08620743 6.0625 6.625 C5.14597656 5.81289063 4.22945313 5.00078125 3.28515625 4.1640625 C1 2 1 2 0 0 Z " fill="#3044A6" transform="translate(453,733)"/>
<path d="M0 0 C0.33 0.99 0.66 1.98 1 3 C1.96039185 2.98428955 1.96039185 2.98428955 2.94018555 2.96826172 C5.85591671 2.92655185 8.77158495 2.90062637 11.6875 2.875 C13.19860352 2.84986328 13.19860352 2.84986328 14.74023438 2.82421875 C15.71669922 2.81777344 16.69316406 2.81132813 17.69921875 2.8046875 C18.59471436 2.79421387 19.49020996 2.78374023 20.4128418 2.77294922 C23.26168257 3.02296544 25.40894543 3.81983488 28 5 C28 5.33 28 5.66 28 6 C24.45806625 5.86024595 20.91653001 5.71211066 17.375 5.5625 C15.87646484 5.50352539 15.87646484 5.50352539 14.34765625 5.44335938 C9.49043896 5.23427386 4.77867956 4.97041445 0 4 C0 2.68 0 1.36 0 0 Z " fill="#6577BD" transform="translate(402,705)"/>
<path d="M0 0 C0.99 0.33 1.98 0.66 3 1 C2.06725891 2.12894876 1.12859878 3.25300876 0.1875 4.375 C-0.33457031 5.00148438 -0.85664062 5.62796875 -1.39453125 6.2734375 C-3 8 -3 8 -6 10 C-6 6 -6 6 -3.5625 3.3125 C-2.716875 2.549375 -1.87125 1.78625 -1 1 C-0.67 0.67 -0.34 0.34 0 0 Z " fill="#327BAB" transform="translate(599,712)"/>
<path d="M0 0 C0.99 0.33 1.98 0.66 3 1 C2.34 1 1.68 1 1 1 C0.89816406 1.72574219 0.79632813 2.45148438 0.69140625 3.19921875 C-0.07339613 6.29731653 -1.23748505 8.21088295 -3.0625 10.8125 C-3.88427734 11.99779297 -3.88427734 11.99779297 -4.72265625 13.20703125 C-5.35494141 14.09455078 -5.35494141 14.09455078 -6 15 C-6.99 14.34 -7.98 13.68 -9 13 C-8.15115234 11.96939453 -8.15115234 11.96939453 -7.28515625 10.91796875 C-6.55167969 10.01691406 -5.81820313 9.11585938 -5.0625 8.1875 C-3.96615234 6.84751953 -3.96615234 6.84751953 -2.84765625 5.48046875 C-0.84817309 3.06637081 -0.84817309 3.06637081 0 0 Z " fill="#2B8C9E" transform="translate(407,500)"/>
<path d="M0 0 C-7.07264416 3.80834686 -13.0922027 4.25327465 -21 4 C-21 3.67 -21 3.34 -21 3 C-18.81462633 2.49078672 -16.62657569 1.99305563 -14.4375 1.5 C-12.61025391 1.08234375 -12.61025391 1.08234375 -10.74609375 0.65625 C-7.07777293 0.01362446 -3.71497397 -0.11474823 0 0 Z " fill="#70C9B7" transform="translate(447,427)"/>
<path d="M0 0 C2.75 -0.25 2.75 -0.25 6 0 C8.0625 1.8125 8.0625 1.8125 10 4 C11.63978318 5.04349839 13.30094366 6.05607981 15 7 C11.49501209 7 9.55099174 6.0747271 6.375 4.625 C5.39273437 4.18414063 4.41046875 3.74328125 3.3984375 3.2890625 C1 2 1 2 0 0 Z " fill="#566BB8" transform="translate(370,659)"/>
<path d="M0 0 C0 3.19633438 -0.33810135 4.34096216 -2 7 C-4.125 8.75 -4.125 8.75 -6 10 C-6.33 9.67 -6.66 9.34 -7 9 C-7.66 9.99 -8.32 10.98 -9 12 C-8.52379711 7.62346871 -7.33100111 5.93461995 -3.9375 3.1875 C-3.20402344 2.58292969 -2.47054688 1.97835937 -1.71484375 1.35546875 C-1.14894531 0.90816406 -0.58304687 0.46085938 0 0 Z " fill="#3E89A9" transform="translate(289,522)"/>
<path d="M0 0 C-0.1875 1.8125 -0.1875 1.8125 -1 4 C-3.5 5.625 -3.5 5.625 -6 7 C-6.33 7.66 -6.66 8.32 -7 9 C-7.99 9 -8.98 9 -10 9 C-8.5124715 4.98367305 -4.56813239 0 0 0 Z " fill="#3370A7" transform="translate(697,630)"/>
<path d="M0 0 C0.33 0.99 0.66 1.98 1 3 C1.94875 2.505 2.8975 2.01 3.875 1.5 C7 0 7 0 9 0 C8.67 0.99 8.34 1.98 8 3 C4.9375 4.1875 4.9375 4.1875 2 5 C2 5.66 2 6.32 2 7 C1.34 7 0.68 7 0 7 C-0.93423645 3.98968256 -1.04449911 3.13349732 0 0 Z " fill="#3D9EA2" transform="translate(582,356)"/>
<path d="M0 0 C-7.0547046 5.05908096 -7.0547046 5.05908096 -11 4.8125 C-11.66 4.544375 -12.32 4.27625 -13 4 C-10.81006393 1.81006393 -9.4012702 1.27802011 -6.5 0.3125 C-5.7059375 0.04050781 -4.911875 -0.23148437 -4.09375 -0.51171875 C-2 -1 -2 -1 0 0 Z " fill="#77D8BA" transform="translate(587,397)"/>
<path d="M0 0 C0.66 0.33 1.32 0.66 2 1 C-4.15034169 8.48291572 -4.15034169 8.48291572 -8 11 C-8.66 10.67 -9.32 10.34 -10 10 C-6.7 6.7 -3.4 3.4 0 0 Z " fill="#279C9A" transform="translate(697,574)"/>
<path d="M0 0 C4.41889613 1.35021826 6.34345343 3.26115668 9 7 C4.71193127 6.52354792 2.73352513 5.34097516 0 2 C0 1.34 0 0.68 0 0 Z " fill="#5BDDA9" transform="translate(679,468)"/>
<path d="M0 0 C0.66 0.33 1.32 0.66 2 1 C-3.96583144 8.66742597 -3.96583144 8.66742597 -9 10 C-8.07038578 8.84775972 -7.1309875 7.70340824 -6.1875 6.5625 C-5.40439453 5.60537109 -5.40439453 5.60537109 -4.60546875 4.62890625 C-3 3 -3 3 0 2 C0 1.34 0 0.68 0 0 Z " fill="#599EB0" transform="translate(366,444)"/>
<path d="M0 0 C2.125 0.9375 2.125 0.9375 4 2 C1.69 3.65 -0.62 5.3 -3 7 C-3.33 5.68 -3.66 4.36 -4 3 C-2 1 -2 1 0 0 Z " fill="#335DA8" transform="translate(518,778)"/>
<path d="M0 0 C0.33 0 0.66 0 1 0 C1 4.95 1 9.9 1 15 C-0.65 15.33 -2.3 15.66 -4 16 C-4 15.34 -4 14.68 -4 14 C-3.01 13.67 -2.02 13.34 -1 13 C-0.67 8.71 -0.34 4.42 0 0 Z " fill="#3AAA9F" transform="translate(597,340)"/>
<path d="M0 0 C1.17571451 3.67410785 1.07366746 7.16929183 1 11 C0.01 11.33 -0.98 11.66 -2 12 C-1.85831863 10.56208484 -1.71148957 9.1246763 -1.5625 7.6875 C-1.48128906 6.88699219 -1.40007812 6.08648437 -1.31640625 5.26171875 C-1 3 -1 3 0 0 Z " fill="#3B72AC" transform="translate(385,428)"/>
<path d="M0 0 C-0.33 0.66 -0.66 1.32 -1 2 C-3.28515625 2.4140625 -3.28515625 2.4140625 -6.0625 2.625 C-7.44115234 2.73714844 -7.44115234 2.73714844 -8.84765625 2.8515625 C-9.55792969 2.90054687 -10.26820313 2.94953125 -11 3 C-11.33 2.34 -11.66 1.68 -12 1 C-7.67265609 -1.22923777 -4.71599818 -0.92470553 0 0 Z " fill="#32A594" transform="translate(561,429)"/>
<path d="M0 0 C3.3 0 6.6 0 10 0 C9.67 0.66 9.34 1.32 9 2 C6.93359375 2.6328125 6.93359375 2.6328125 4.4375 3.125 C3.19806641 3.37636719 3.19806641 3.37636719 1.93359375 3.6328125 C1.29550781 3.75398438 0.65742188 3.87515625 0 4 C0 2.68 0 1.36 0 0 Z " fill="#3368A7" transform="translate(510,354)"/>
<path d="M0 0 C2.4375 1.1875 2.4375 1.1875 5 3 C5.8125 5.6875 5.8125 5.6875 6 8 C1.3125 4.38671875 1.3125 4.38671875 0 3 C0 2.01 0 1.02 0 0 Z " fill="#2E43A2" transform="translate(480,756)"/>
<path d="M0 0 C3.91211733 1.15585285 6.8745041 2.35534962 10 5 C6.6875 5.3125 6.6875 5.3125 3 5 C1.0625 2.5 1.0625 2.5 0 0 Z " fill="#2E9F93" transform="translate(563,442)"/>
<path d="M0 0 C0.33 0.66 0.66 1.32 1 2 C0.00390625 4.3828125 0.00390625 4.3828125 -1.4375 7.125 C-1.91058594 8.03507812 -2.38367188 8.94515625 -2.87109375 9.8828125 C-3.24363281 10.58148438 -3.61617187 11.28015625 -4 12 C-5.25541557 8.23375329 -4.37061958 6.62811066 -3 3 C-2.34 3 -1.68 3 -1 3 C-0.67 2.01 -0.34 1.02 0 0 Z " fill="#216C95" transform="translate(571,410)"/>
<path d="M0 0 C3.78710721 0.32931367 6.44059928 1.63381142 9.875 3.25 C6.67929821 4.84785089 3.26135924 4.02115111 -0.125 3.25 C-1.115 2.59 -2.105 1.93 -3.125 1.25 C-2.125 0.25 -2.125 0.25 0 0 Z " fill="#63DBB0" transform="translate(601.125,389.75)"/>
<path d="M0 0 C0.66 0 1.32 0 2 0 C0.50902342 3.7952131 -1.75700849 5.61042731 -5 8 C-5 5 -5 5 -3.625 3.3125 C-2 2 -2 2 0 2 C0 1.34 0 0.68 0 0 Z " fill="#3F81B3" transform="translate(615,696)"/>
<path d="M0 0 C0.88336837 2.4667645 1.1312406 3.63859372 0.22265625 6.140625 C-0.16019531 6.83671875 -0.54304687 7.5328125 -0.9375 8.25 C-1.31777344 8.95640625 -1.69804688 9.6628125 -2.08984375 10.390625 C-2.39019531 10.92171875 -2.69054687 11.4528125 -3 12 C-4.21386936 8.35839192 -3.6674695 7.66834531 -2.0625 4.3125 C-1.49208984 3.10013672 -1.49208984 3.10013672 -0.91015625 1.86328125 C-0.60980469 1.24839844 -0.30945313 0.63351562 0 0 Z " fill="#2F889D" transform="translate(711,598)"/>
<path d="M0 0 C0.66 0 1.32 0 2 0 C4.5393228 3.41831915 5.3636198 5.75776898 5 10 C4.67 9.01 4.34 8.02 4 7 C3.34 7 2.68 7 2 7 C0.5393715 4.35261084 0 3.10551666 0 0 Z " fill="#1A3497" transform="translate(300,573)"/>
<path d="M0 0 C1.7074998 1.28062485 3.37373596 2.61767557 5 4 C5 4.66 5 5.32 5 6 C4.34 6 3.68 6 3 6 C2.67 6.66 2.34 7.32 2 8 C0.23537317 4.91190305 0 3.76687864 0 0 Z " fill="#2B4BA0" transform="translate(282,534)"/>
<path d="M0 0 C1.485 0.99 1.485 0.99 3 2 C3 2.66 3 3.32 3 4 C3.66 4 4.32 4 5 4 C4.67 4.99 4.34 5.98 4 7 C2.68 6.67 1.36 6.34 0 6 C0 4.02 0 2.04 0 0 Z " fill="#3DB69D" transform="translate(609,510)"/>
<path d="M0 0 C2.64752004 2.57784846 4.94432065 4.91648098 7 8 C3.76912579 7.44295272 1.97638863 6.66812465 0 4 C0 2.68 0 1.36 0 0 Z " fill="#53DBA3" transform="translate(702,489)"/>
<path d="M0 0 C3.73487777 0.4979837 5.81237635 0.87491756 9 3 C9 3.66 9 4.32 9 5 C9.66 5.33 10.32 5.66 11 6 C6.80639551 5.32902328 3.59665648 3.1441606 0 1 C0 0.67 0 0.34 0 0 Z " fill="#2F9E9E" transform="translate(573,447)"/>
<path d="M0 0 C2.97 0 5.94 0 9 0 C9 0.99 9 1.98 9 3 C2.25 2.25 2.25 2.25 0 0 Z " fill="#4678AB" transform="translate(570,362)"/>
<path d="M0 0 C0.66 0.33 1.32 0.66 2 1 C-1.465 3.97 -1.465 3.97 -5 7 C-5.33 6.01 -5.66 5.02 -6 4 C-4.02 2.68 -2.04 1.36 0 0 Z " fill="#C7D9E5" transform="translate(670,652)"/>
<path d="M0 0 C0.99 0.33 1.98 0.66 3 1 C2.67 1.66 2.34 2.32 2 3 C2.99 3.33 3.98 3.66 5 4 C5 5.98 5 7.96 5 10 C4.34 9.34 3.68 8.68 3 8 C3 7.01 3 6.02 3 5 C2.34 5 1.68 5 1 5 C0.67 3.35 0.34 1.7 0 0 Z " fill="#4357AC" transform="translate(317,613)"/>
<path d="M0 0 C5.75 1.875 5.75 1.875 8 3 C8 3.66 8 4.32 8 5 C4.33776842 4.50510384 2.33006074 3.94323463 0 1 C0 0.67 0 0.34 0 0 Z " fill="#4DD1A0" transform="translate(611,394)"/>
<path d="M0 0 C1.32 0.33 2.64 0.66 4 1 C4 3.31 4 5.62 4 8 C1.10067643 5.60490662 0.49831724 3.68754757 0 0 Z " fill="#5B6AB6" transform="translate(389,677)"/>
<path d="M0 0 C0 3.12900213 -0.42451317 4.37418862 -2 7 C-2.99 7.495 -2.99 7.495 -4 8 C-4.33 7.01 -4.66 6.02 -5 5 C-3.35 3.35 -1.7 1.7 0 0 Z " fill="#468EAA" transform="translate(311,499)"/>
<path d="M0 0 C2.475 0.495 2.475 0.495 5 1 C5.33 2.65 5.66 4.3 6 6 C3.97945196 4.35830472 1.97956942 2.69088222 0 1 C0 0.67 0 0.34 0 0 Z " fill="#4253AD" transform="translate(470,749)"/>
<path d="M0 0 C2.97 0.495 2.97 0.495 6 1 C6 1.66 6 2.32 6 3 C3.36 3 0.72 3 -2 3 C-1.34 2.01 -0.68 1.02 0 0 Z " fill="#284798" transform="translate(580,728)"/>
<path d="M0 0 C0.66 0 1.32 0 2 0 C1.60196439 2.88575819 1.20990931 3.82189513 -1.0625 5.75 C-1.701875 6.1625 -2.34125 6.575 -3 7 C-3 3.47967572 -2.29648649 2.5614657 0 0 Z " fill="#3079A9" transform="translate(625,684)"/>
<path d="M0 0 C2.31 0.33 4.62 0.66 7 1 C7 1.99 7 2.98 7 4 C4.97954558 3.39816251 2.97888961 2.72693904 1 2 C0.67 1.34 0.34 0.68 0 0 Z " fill="#4A5FB3" transform="translate(334,642)"/>
<path d="M0 0 C1.98 0.99 1.98 0.99 4 2 C4 3.32 4 4.64 4 6 C3.01 6 2.02 6 1 6 C0.67 4.02 0.34 2.04 0 0 Z " fill="#1D359A" transform="translate(328,634)"/>
<path d="M0 0 C-3.20380017 2.13586678 -4.01939967 2.23132175 -7.6875 2.125 C-8.89986328 2.09792969 -8.89986328 2.09792969 -10.13671875 2.0703125 C-11.05904297 2.03550781 -11.05904297 2.03550781 -12 2 C-7.89783794 -0.73477471 -4.73617773 -1.57872591 0 0 Z " fill="#69CAB3" transform="translate(459,425)"/>
<path d="M0 0 C2.97 0.33 5.94 0.66 9 1 C9 1.99 9 2.98 9 4 C6.03 3.01 3.06 2.02 0 1 C0 0.67 0 0.34 0 0 Z " fill="#4E78B3" transform="translate(499,329)"/>
</svg>
